<svg width="870" height="168" viewBox="0 0 870 168" fill="none" xmlns="http://www.w3.org/2000/svg">
<g opacity="0.5">
<path d="M33.1163 6.85839V2.59863" stroke="white" stroke-width="3.2027" stroke-linecap="round" stroke-linejoin="round"/>
<path d="M29.9214 2.59863L36.311 2.59863" stroke="white" stroke-width="3.2027" stroke-linecap="round" stroke-linejoin="round"/>
<path d="M33.1169 60.1045L33.1169 64.3643" stroke="white" stroke-width="3.2027" stroke-linecap="round" stroke-linejoin="round"/>
<path d="M36.3119 64.3643L29.9222 64.3643" stroke="white" stroke-width="3.2027" stroke-linecap="round" stroke-linejoin="round"/>
<path d="M59.7401 33.4805L63.9999 33.4805" stroke="white" stroke-width="3.2027" stroke-linecap="round" stroke-linejoin="round"/>
<path d="M63.9999 30.2857L63.9999 36.6753" stroke="white" stroke-width="3.2027" stroke-linecap="round" stroke-linejoin="round"/>
<path d="M6.49315 33.4824L2.2334 33.4824" stroke="white" stroke-width="3.2027" stroke-linecap="round" stroke-linejoin="round"/>
<path d="M2.2334 36.6772L2.2334 30.2876" stroke="white" stroke-width="3.2027" stroke-linecap="round" stroke-linejoin="round"/>
<path d="M19.8052 10.4244L17.6753 6.73535" stroke="white" stroke-width="3.2027" stroke-linecap="round" stroke-linejoin="round"/>
<path d="M14.9086 8.33349L20.4421 5.13867" stroke="white" stroke-width="3.2027" stroke-linecap="round" stroke-linejoin="round"/>
<path d="M46.4285 56.539L48.5583 60.228" stroke="white" stroke-width="3.2027" stroke-linecap="round" stroke-linejoin="round"/>
<path d="M51.3252 58.6299L45.7916 61.8247" stroke="white" stroke-width="3.2027" stroke-linecap="round" stroke-linejoin="round"/>
<path d="M56.1729 20.1704L59.8619 18.0405" stroke="white" stroke-width="3.2027" stroke-linecap="round" stroke-linejoin="round"/>
<path d="M58.264 15.2735L61.4589 20.8071" stroke="white" stroke-width="3.2027" stroke-linecap="round" stroke-linejoin="round"/>
<path d="M10.0604 46.793L6.37134 48.9229" stroke="white" stroke-width="3.2027" stroke-linecap="round" stroke-linejoin="round"/>
<path d="M7.96923 51.6898L4.77441 46.1562" stroke="white" stroke-width="3.2027" stroke-linecap="round" stroke-linejoin="round"/>
<path d="M10.0616 20.1694L6.37256 18.0396" stroke="white" stroke-width="3.2027" stroke-linecap="round" stroke-linejoin="round"/>
<path d="M4.77479 20.806L7.9696 15.2725" stroke="white" stroke-width="3.2027" stroke-linecap="round" stroke-linejoin="round"/>
<path d="M56.1735 46.793L59.8625 48.9229" stroke="white" stroke-width="3.2027" stroke-linecap="round" stroke-linejoin="round"/>
<path d="M61.4603 46.1564L58.2655 51.6899" stroke="white" stroke-width="3.2027" stroke-linecap="round" stroke-linejoin="round"/>
<path d="M46.4268 10.4259L48.5566 6.73682" stroke="white" stroke-width="3.2027" stroke-linecap="round" stroke-linejoin="round"/>
<path d="M45.7899 5.13917L51.3235 8.33398" stroke="white" stroke-width="3.2027" stroke-linecap="round" stroke-linejoin="round"/>
<path d="M19.8055 56.537L17.6757 60.2261" stroke="white" stroke-width="3.2027" stroke-linecap="round" stroke-linejoin="round"/>
<path d="M20.4424 61.8237L14.9088 58.6289" stroke="white" stroke-width="3.2027" stroke-linecap="round" stroke-linejoin="round"/>
<circle cx="33.1169" cy="33.4823" r="25.0221" stroke="white" stroke-width="3.2027"/>
<circle cx="32.0513" cy="32.4165" r="2.6584" stroke="white" stroke-width="3.2027"/>
<circle cx="32.0513" cy="17.5078" r="2.6584" stroke="white" stroke-width="3.2027"/>
<circle cx="34.1811" cy="47.3257" r="4.78828" stroke="white" stroke-width="3.2027"/>
<ellipse cx="20.2048" cy="26.0261" rx="3.5079" ry="3.5079" transform="rotate(-60 20.2048 26.0261)" stroke="white" stroke-width="3.2027"/>
<ellipse cx="47.6348" cy="39.3596" rx="3.83194" ry="3.83194" transform="rotate(-60 47.6348 39.3596)" stroke="white" stroke-width="3.2027"/>
<mask id="path-31-inside-1" fill="white">
<ellipse cx="20.2052" cy="40.9364" rx="2.8811" ry="2.8811" transform="rotate(-120 20.2052 40.9364)"/>
</mask>
<path d="M20.366 41.2149C20.2122 41.3037 20.0155 41.251 19.9267 41.0972L25.4739 37.8945C23.7939 34.9847 20.0731 33.9877 17.1633 35.6677L20.366 41.2149ZM19.9267 41.0972C19.8379 40.9434 19.8906 40.7467 20.0444 40.6579L23.2471 46.2051C26.1569 44.5251 27.1539 40.8043 25.4739 37.8945L19.9267 41.0972ZM20.0444 40.6579C20.1982 40.5691 20.3949 40.6218 20.4837 40.7756L14.9365 43.9783C16.6165 46.8882 20.3373 47.8851 23.2471 46.2051L20.0444 40.6579ZM20.4837 40.7756C20.5725 40.9294 20.5198 41.1261 20.366 41.2149L17.1633 35.6677C14.2534 37.3477 13.2565 41.0685 14.9365 43.9783L20.4837 40.7756Z" fill="white" mask="url(#path-31-inside-1)"/>
<path d="M44.1663 22.8026C45.9471 21.7744 48.2243 22.3846 49.2525 24.1654C50.2806 25.9463 49.6705 28.2235 47.8896 29.2516C46.1088 30.2798 43.8316 29.6696 42.8034 27.8888C41.7753 26.1079 42.3854 23.8308 44.1663 22.8026Z" stroke="white" stroke-width="3.2027"/>
</g>
<g opacity="0.5">
<path d="M852.617 136.789V134.599" stroke="white" stroke-width="1.64713" stroke-linecap="round" stroke-linejoin="round"/>
<path d="M850.974 134.599L854.26 134.599" stroke="white" stroke-width="1.64713" stroke-linecap="round" stroke-linejoin="round"/>
<path d="M852.617 164.173L852.617 166.364" stroke="white" stroke-width="1.64713" stroke-linecap="round" stroke-linejoin="round"/>
<path d="M854.26 166.364L850.974 166.364" stroke="white" stroke-width="1.64713" stroke-linecap="round" stroke-linejoin="round"/>
<path d="M866.309 150.481L868.5 150.481" stroke="white" stroke-width="1.64713" stroke-linecap="round" stroke-linejoin="round"/>
<path d="M868.5 148.838L868.5 152.124" stroke="white" stroke-width="1.64713" stroke-linecap="round" stroke-linejoin="round"/>
<path d="M838.925 150.482L836.734 150.482" stroke="white" stroke-width="1.64713" stroke-linecap="round" stroke-linejoin="round"/>
<path d="M836.734 152.125L836.734 148.839" stroke="white" stroke-width="1.64713" stroke-linecap="round" stroke-linejoin="round"/>
<path d="M845.771 138.623L844.676 136.726" stroke="white" stroke-width="1.64713" stroke-linecap="round" stroke-linejoin="round"/>
<path d="M843.253 137.548L846.098 135.905" stroke="white" stroke-width="1.64713" stroke-linecap="round" stroke-linejoin="round"/>
<path d="M859.463 162.34L860.558 164.237" stroke="white" stroke-width="1.64713" stroke-linecap="round" stroke-linejoin="round"/>
<path d="M861.981 163.415L859.135 165.058" stroke="white" stroke-width="1.64713" stroke-linecap="round" stroke-linejoin="round"/>
<path d="M864.474 143.636L866.372 142.541" stroke="white" stroke-width="1.64713" stroke-linecap="round" stroke-linejoin="round"/>
<path d="M865.55 141.118L867.193 143.963" stroke="white" stroke-width="1.64713" stroke-linecap="round" stroke-linejoin="round"/>
<path d="M840.759 157.327L838.862 158.423" stroke="white" stroke-width="1.64713" stroke-linecap="round" stroke-linejoin="round"/>
<path d="M839.684 159.846L838.041 157" stroke="white" stroke-width="1.64713" stroke-linecap="round" stroke-linejoin="round"/>
<path d="M840.76 143.635L838.863 142.54" stroke="white" stroke-width="1.64713" stroke-linecap="round" stroke-linejoin="round"/>
<path d="M838.041 143.963L839.684 141.117" stroke="white" stroke-width="1.64713" stroke-linecap="round" stroke-linejoin="round"/>
<path d="M864.474 157.327L866.372 158.423" stroke="white" stroke-width="1.64713" stroke-linecap="round" stroke-linejoin="round"/>
<path d="M867.193 157L865.55 159.846" stroke="white" stroke-width="1.64713" stroke-linecap="round" stroke-linejoin="round"/>
<path d="M859.462 138.624L860.558 136.727" stroke="white" stroke-width="1.64713" stroke-linecap="round" stroke-linejoin="round"/>
<path d="M859.135 135.905L861.981 137.548" stroke="white" stroke-width="1.64713" stroke-linecap="round" stroke-linejoin="round"/>
<path d="M845.771 162.339L844.676 164.236" stroke="white" stroke-width="1.64713" stroke-linecap="round" stroke-linejoin="round"/>
<path d="M846.099 165.058L843.253 163.415" stroke="white" stroke-width="1.64713" stroke-linecap="round" stroke-linejoin="round"/>
<circle cx="852.617" cy="150.482" r="12.8687" stroke="white" stroke-width="1.64713"/>
<circle cx="852.069" cy="149.934" r="1.3672" stroke="white" stroke-width="1.64713"/>
<circle cx="852.069" cy="142.266" r="1.3672" stroke="white" stroke-width="1.64713"/>
<circle cx="853.164" cy="157.602" r="2.46257" stroke="white" stroke-width="1.64713"/>
<ellipse cx="845.976" cy="146.647" rx="1.80409" ry="1.80409" transform="rotate(-60 845.976 146.647)" stroke="white" stroke-width="1.64713"/>
<ellipse cx="860.083" cy="153.505" rx="1.97074" ry="1.97074" transform="rotate(-60 860.083 153.505)" stroke="white" stroke-width="1.64713"/>
<mask id="path-64-inside-2" fill="white">
<ellipse cx="845.976" cy="154.315" rx="1.48173" ry="1.48173" transform="rotate(-120 845.976 154.315)"/>
</mask>
<path d="M846.059 154.459C845.98 154.504 845.879 154.477 845.833 154.398L848.686 152.751C847.822 151.254 845.908 150.742 844.412 151.606L846.059 154.459ZM845.833 154.398C845.787 154.319 845.814 154.218 845.893 154.172L847.541 157.025C849.037 156.161 849.55 154.247 848.686 152.751L845.833 154.398ZM845.893 154.172C845.973 154.126 846.074 154.153 846.119 154.233L843.267 155.88C844.131 157.376 846.044 157.889 847.541 157.025L845.893 154.172ZM846.119 154.233C846.165 154.312 846.138 154.413 846.059 154.459L844.412 151.606C842.915 152.47 842.403 154.383 843.267 155.88L846.119 154.233Z" fill="white" mask="url(#path-64-inside-2)"/>
<path d="M858.3 144.99C859.215 144.461 860.387 144.775 860.915 145.69C861.444 146.606 861.13 147.777 860.214 148.306C859.299 148.835 858.127 148.521 857.599 147.605C857.07 146.689 857.384 145.518 858.3 144.99Z" stroke="white" stroke-width="1.64713"/>
</g>
</svg>
