<svg width="663" height="182" viewBox="0 0 663 182" fill="none" xmlns="http://www.w3.org/2000/svg">
<g clip-path="url(#clip0)">
<path d="M0 17.4365C0 7.95652 7.68505 0.271484 17.165 0.271484H645.835C655.315 0.271484 663 7.95654 663 17.4365V181.729H0V17.4365Z" fill="#3E64FF"/>
<path d="M47.1437 78.8812C44.5757 78.8812 42.2477 78.3292 40.1597 77.2252C38.0957 76.0972 36.4637 74.5492 35.2637 72.5812C34.0877 70.5892 33.4997 68.3452 33.4997 65.8492C33.4997 63.3532 34.0877 61.1212 35.2637 59.1532C36.4637 57.1612 38.0957 55.6132 40.1597 54.5092C42.2477 53.3812 44.5877 52.8172 47.1797 52.8172C49.3637 52.8172 51.3317 53.2012 53.0837 53.9692C54.8597 54.7372 56.3477 55.8412 57.5477 57.2812L53.8037 60.7372C52.0997 58.7692 49.9877 57.7852 47.4677 57.7852C45.9077 57.7852 44.5157 58.1332 43.2917 58.8292C42.0677 59.5012 41.1077 60.4492 40.4117 61.6732C39.7397 62.8972 39.4037 64.2892 39.4037 65.8492C39.4037 67.4092 39.7397 68.8012 40.4117 70.0252C41.1077 71.2492 42.0677 72.2092 43.2917 72.9052C44.5157 73.5772 45.9077 73.9132 47.4677 73.9132C49.9877 73.9132 52.0997 72.9172 53.8037 70.9252L57.5477 74.3812C56.3477 75.8452 54.8597 76.9612 53.0837 77.7292C51.3077 78.4972 49.3277 78.8812 47.1437 78.8812ZM70.2388 78.7372C68.1988 78.7372 66.3628 78.3172 64.7308 77.4772C63.1228 76.6132 61.8628 75.4252 60.9508 73.9132C60.0388 72.4012 59.5828 70.6852 59.5828 68.7652C59.5828 66.8452 60.0388 65.1292 60.9508 63.6172C61.8628 62.1052 63.1228 60.9292 64.7308 60.0892C66.3628 59.2252 68.1988 58.7932 70.2388 58.7932C72.2788 58.7932 74.1028 59.2252 75.7108 60.0892C77.3188 60.9292 78.5788 62.1052 79.4908 63.6172C80.4028 65.1292 80.8588 66.8452 80.8588 68.7652C80.8588 70.6852 80.4028 72.4012 79.4908 73.9132C78.5788 75.4252 77.3188 76.6132 75.7108 77.4772C74.1028 78.3172 72.2788 78.7372 70.2388 78.7372ZM70.2388 74.1292C71.6788 74.1292 72.8548 73.6492 73.7668 72.6892C74.7028 71.7052 75.1708 70.3972 75.1708 68.7652C75.1708 67.1332 74.7028 65.8372 73.7668 64.8772C72.8548 63.8932 71.6788 63.4012 70.2388 63.4012C68.7988 63.4012 67.6108 63.8932 66.6748 64.8772C65.7388 65.8372 65.2708 67.1332 65.2708 68.7652C65.2708 70.3972 65.7388 71.7052 66.6748 72.6892C67.6108 73.6492 68.7988 74.1292 70.2388 74.1292ZM103.91 59.0812L95.738 78.4492H89.942L81.806 59.0812H87.602L92.966 72.2572L98.51 59.0812H103.91ZM106.802 59.0812H112.418V78.4492H106.802V59.0812ZM109.61 56.3812C108.578 56.3812 107.738 56.0812 107.09 55.4812C106.442 54.8812 106.118 54.1372 106.118 53.2492C106.118 52.3612 106.442 51.6172 107.09 51.0172C107.738 50.4172 108.578 50.1172 109.61 50.1172C110.642 50.1172 111.482 50.4052 112.13 50.9812C112.778 51.5572 113.102 52.2772 113.102 53.1412C113.102 54.0772 112.778 54.8572 112.13 55.4812C111.482 56.0812 110.642 56.3812 109.61 56.3812ZM137.959 51.7372V78.4492H132.595V76.2172C131.203 77.8972 129.187 78.7372 126.547 78.7372C124.723 78.7372 123.067 78.3292 121.579 77.5132C120.115 76.6972 118.963 75.5332 118.123 74.0212C117.283 72.5092 116.863 70.7572 116.863 68.7652C116.863 66.7732 117.283 65.0212 118.123 63.5092C118.963 61.9972 120.115 60.8332 121.579 60.0172C123.067 59.2012 124.723 58.7932 126.547 58.7932C129.019 58.7932 130.951 59.5732 132.343 61.1332V51.7372H137.959ZM127.519 74.1292C128.935 74.1292 130.111 73.6492 131.047 72.6892C131.983 71.7052 132.451 70.3972 132.451 68.7652C132.451 67.1332 131.983 65.8372 131.047 64.8772C130.111 63.8932 128.935 63.4012 127.519 63.4012C126.079 63.4012 124.891 63.8932 123.955 64.8772C123.019 65.8372 122.551 67.1332 122.551 68.7652C122.551 70.3972 123.019 71.7052 123.955 72.6892C124.891 73.6492 126.079 74.1292 127.519 74.1292ZM143.038 66.0652H153.226V70.5652H143.038V66.0652ZM166.004 53.2492V78.4492H160.172V57.9292H155.132V53.2492H166.004ZM179.838 52.8172C183.366 52.8172 186.126 53.8972 188.118 56.0572C190.11 58.1932 191.106 61.2772 191.106 65.3092C191.106 68.1652 190.566 70.6132 189.486 72.6532C188.43 74.6932 186.93 76.2412 184.986 77.2972C183.042 78.3532 180.798 78.8812 178.254 78.8812C176.91 78.8812 175.626 78.7372 174.402 78.4492C173.178 78.1372 172.134 77.7052 171.27 77.1532L173.43 72.8692C174.654 73.7092 176.226 74.1292 178.146 74.1292C180.282 74.1292 181.974 73.5052 183.222 72.2572C184.47 70.9852 185.142 69.1612 185.238 66.7852C183.726 68.2972 181.638 69.0532 178.974 69.0532C177.366 69.0532 175.902 68.7292 174.582 68.0812C173.262 67.4332 172.218 66.5212 171.45 65.3452C170.682 64.1452 170.298 62.7652 170.298 61.2052C170.298 59.5252 170.718 58.0492 171.558 56.7772C172.398 55.5052 173.538 54.5332 174.978 53.8612C176.442 53.1652 178.062 52.8172 179.838 52.8172ZM180.27 64.6972C181.542 64.6972 182.574 64.3492 183.366 63.6532C184.182 62.9332 184.59 62.0212 184.59 60.9172C184.59 59.8132 184.194 58.9132 183.402 58.2172C182.634 57.5212 181.566 57.1732 180.198 57.1732C178.95 57.1732 177.93 57.5092 177.138 58.1812C176.37 58.8532 175.986 59.7652 175.986 60.9172C175.986 62.0692 176.37 62.9932 177.138 63.6892C177.93 64.3612 178.974 64.6972 180.27 64.6972ZM59.3117 97.2492L48.4037 122.449H42.6437L31.7717 97.2492H38.0717L45.7397 115.249L53.5157 97.2492H59.3117ZM67.991 102.793C70.991 102.793 73.295 103.513 74.903 104.953C76.511 106.369 77.315 108.517 77.315 111.397V122.449H72.059V120.037C71.003 121.837 69.035 122.737 66.155 122.737C64.667 122.737 63.371 122.485 62.267 121.981C61.187 121.477 60.359 120.781 59.783 119.893C59.207 119.005 58.919 117.997 58.919 116.869C58.919 115.069 59.591 113.653 60.935 112.621C62.303 111.589 64.403 111.073 67.235 111.073H71.699C71.699 109.849 71.327 108.913 70.583 108.265C69.839 107.593 68.723 107.257 67.235 107.257C66.203 107.257 65.183 107.425 64.175 107.761C63.191 108.073 62.351 108.505 61.655 109.057L59.639 105.133C60.695 104.389 61.955 103.813 63.419 103.405C64.907 102.997 66.431 102.793 67.991 102.793ZM67.559 118.957C68.519 118.957 69.371 118.741 70.115 118.309C70.859 117.853 71.387 117.193 71.699 116.329V114.349H67.847C65.543 114.349 64.391 115.105 64.391 116.617C64.391 117.337 64.667 117.913 65.219 118.345C65.795 118.753 66.575 118.957 67.559 118.957ZM92.5694 122.737C90.5054 122.737 88.6454 122.317 86.9894 121.477C85.3574 120.613 84.0734 119.425 83.1374 117.913C82.2254 116.401 81.7694 114.685 81.7694 112.765C81.7694 110.845 82.2254 109.129 83.1374 107.617C84.0734 106.105 85.3574 104.929 86.9894 104.089C88.6454 103.225 90.5054 102.793 92.5694 102.793C94.6094 102.793 96.3854 103.225 97.8974 104.089C99.4334 104.929 100.549 106.141 101.245 107.725L96.8894 110.065C95.8814 108.289 94.4294 107.401 92.5334 107.401C91.0694 107.401 89.8574 107.881 88.8974 108.841C87.9374 109.801 87.4574 111.109 87.4574 112.765C87.4574 114.421 87.9374 115.729 88.8974 116.689C89.8574 117.649 91.0694 118.129 92.5334 118.129C94.4534 118.129 95.9054 117.241 96.8894 115.465L101.245 117.841C100.549 119.377 99.4334 120.577 97.8974 121.441C96.3854 122.305 94.6094 122.737 92.5694 122.737ZM114.194 122.737C112.13 122.737 110.27 122.317 108.614 121.477C106.982 120.613 105.698 119.425 104.762 117.913C103.85 116.401 103.394 114.685 103.394 112.765C103.394 110.845 103.85 109.129 104.762 107.617C105.698 106.105 106.982 104.929 108.614 104.089C110.27 103.225 112.13 102.793 114.194 102.793C116.234 102.793 118.01 103.225 119.522 104.089C121.058 104.929 122.174 106.141 122.87 107.725L118.514 110.065C117.506 108.289 116.054 107.401 114.158 107.401C112.694 107.401 111.482 107.881 110.522 108.841C109.562 109.801 109.082 111.109 109.082 112.765C109.082 114.421 109.562 115.729 110.522 116.689C111.482 117.649 112.694 118.129 114.158 118.129C116.078 118.129 117.53 117.241 118.514 115.465L122.87 117.841C122.174 119.377 121.058 120.577 119.522 121.441C118.01 122.305 116.234 122.737 114.194 122.737ZM126.704 103.081H132.32V122.449H126.704V103.081ZM129.512 100.381C128.48 100.381 127.64 100.081 126.992 99.4812C126.344 98.8812 126.02 98.1372 126.02 97.2492C126.02 96.3612 126.344 95.6172 126.992 95.0172C127.64 94.4172 128.48 94.1172 129.512 94.1172C130.544 94.1172 131.384 94.4052 132.032 94.9812C132.68 95.5572 133.004 96.2772 133.004 97.1412C133.004 98.0772 132.68 98.8572 132.032 99.4812C131.384 100.081 130.544 100.381 129.512 100.381ZM149.905 102.793C152.305 102.793 154.237 103.513 155.701 104.953C157.189 106.393 157.933 108.529 157.933 111.361V122.449H152.317V112.225C152.317 110.689 151.981 109.549 151.309 108.805C150.637 108.037 149.665 107.653 148.393 107.653C146.977 107.653 145.849 108.097 145.009 108.985C144.169 109.849 143.749 111.145 143.749 112.873V122.449H138.133V103.081H143.497V105.349C144.241 104.533 145.165 103.909 146.269 103.477C147.373 103.021 148.585 102.793 149.905 102.793ZM171.436 102.793C174.436 102.793 176.74 103.513 178.348 104.953C179.956 106.369 180.76 108.517 180.76 111.397V122.449H175.504V120.037C174.448 121.837 172.48 122.737 169.6 122.737C168.112 122.737 166.816 122.485 165.712 121.981C164.632 121.477 163.804 120.781 163.228 119.893C162.652 119.005 162.364 117.997 162.364 116.869C162.364 115.069 163.036 113.653 164.38 112.621C165.748 111.589 167.848 111.073 170.68 111.073H175.144C175.144 109.849 174.772 108.913 174.028 108.265C173.284 107.593 172.168 107.257 170.68 107.257C169.648 107.257 168.628 107.425 167.62 107.761C166.636 108.073 165.796 108.505 165.1 109.057L163.084 105.133C164.14 104.389 165.4 103.813 166.864 103.405C168.352 102.997 169.876 102.793 171.436 102.793ZM171.004 118.957C171.964 118.957 172.816 118.741 173.56 118.309C174.304 117.853 174.832 117.193 175.144 116.329V114.349H171.292C168.988 114.349 167.836 115.105 167.836 116.617C167.836 117.337 168.112 117.913 168.664 118.345C169.24 118.753 170.02 118.957 171.004 118.957ZM198.935 121.513C198.383 121.921 197.699 122.233 196.883 122.449C196.091 122.641 195.251 122.737 194.363 122.737C192.059 122.737 190.271 122.149 188.999 120.973C187.751 119.797 187.127 118.069 187.127 115.789V107.833H184.139V103.513H187.127V98.7972H192.743V103.513H197.567V107.833H192.743V115.717C192.743 116.533 192.947 117.169 193.355 117.625C193.787 118.057 194.387 118.273 195.155 118.273C196.043 118.273 196.799 118.033 197.423 117.553L198.935 121.513ZM202.689 103.081H208.305V122.449H202.689V103.081ZM205.497 100.381C204.465 100.381 203.625 100.081 202.977 99.4812C202.329 98.8812 202.005 98.1372 202.005 97.2492C202.005 96.3612 202.329 95.6172 202.977 95.0172C203.625 94.4172 204.465 94.1172 205.497 94.1172C206.529 94.1172 207.369 94.4052 208.017 94.9812C208.665 95.5572 208.989 96.2772 208.989 97.1412C208.989 98.0772 208.665 98.8572 208.017 99.4812C207.369 100.081 206.529 100.381 205.497 100.381ZM223.333 122.737C221.293 122.737 219.457 122.317 217.825 121.477C216.217 120.613 214.957 119.425 214.045 117.913C213.133 116.401 212.677 114.685 212.677 112.765C212.677 110.845 213.133 109.129 214.045 107.617C214.957 106.105 216.217 104.929 217.825 104.089C219.457 103.225 221.293 102.793 223.333 102.793C225.373 102.793 227.197 103.225 228.805 104.089C230.413 104.929 231.673 106.105 232.585 107.617C233.497 109.129 233.953 110.845 233.953 112.765C233.953 114.685 233.497 116.401 232.585 117.913C231.673 119.425 230.413 120.613 228.805 121.477C227.197 122.317 225.373 122.737 223.333 122.737ZM223.333 118.129C224.773 118.129 225.949 117.649 226.861 116.689C227.797 115.705 228.265 114.397 228.265 112.765C228.265 111.133 227.797 109.837 226.861 108.877C225.949 107.893 224.773 107.401 223.333 107.401C221.893 107.401 220.705 107.893 219.769 108.877C218.833 109.837 218.365 111.133 218.365 112.765C218.365 114.397 218.833 115.705 219.769 116.689C220.705 117.649 221.893 118.129 223.333 118.129ZM250.08 102.793C252.48 102.793 254.412 103.513 255.876 104.953C257.364 106.393 258.108 108.529 258.108 111.361V122.449H252.492V112.225C252.492 110.689 252.156 109.549 251.484 108.805C250.812 108.037 249.84 107.653 248.568 107.653C247.152 107.653 246.024 108.097 245.184 108.985C244.344 109.849 243.924 111.145 243.924 112.873V122.449H238.308V103.081H243.672V105.349C244.416 104.533 245.34 103.909 246.444 103.477C247.548 103.021 248.76 102.793 250.08 102.793Z" fill="white"/>
<path fill-rule="evenodd" clip-rule="evenodd" d="M459.63 135.854L463.131 140.038C463.131 140.038 461.145 140.188 459.22 140.343C458.549 140.394 457.882 140.446 457.313 140.492C455.798 140.614 451.687 139.8 449.258 139.28C449.249 139.276 449.244 139.276 449.239 139.276C448.139 139.037 447.389 138.859 447.389 138.859C447.389 138.859 446.149 137.361 445.114 136.079C444.913 135.831 444.722 135.592 444.545 135.372C444.289 135.049 444.014 134.511 443.743 133.875C442.885 131.844 442.107 128.768 442.247 128.217C442.424 127.491 449.957 111.414 455.155 102.293C455.672 101.385 456.185 100.538 456.693 99.7428C460.688 93.4667 464.18 90.6353 464.18 90.6353C464.208 90.8739 464.231 91.1168 464.25 91.3696C464.734 98.0298 462.021 110.067 459.803 118.51C458.362 124.009 457.131 127.996 457.131 127.996C457.131 127.996 457.122 127.987 457.113 127.973C457.085 127.94 457.033 127.884 456.964 127.8C456.94 127.767 456.908 127.734 456.875 127.697C456.814 127.632 456.754 127.552 456.675 127.467C456.614 127.393 456.549 127.318 456.483 127.243L455.509 130.935L459.625 135.849L459.63 135.854Z" fill="#00CCB2"/>
<path fill-rule="evenodd" clip-rule="evenodd" d="M461.125 99.7471L459.802 118.512C458.364 124.011 457.13 127.994 457.13 127.994C455.769 126.297 454.235 124.982 452.733 123.965C454.478 118.356 458.652 105.169 461.125 99.7471Z" fill="#00A48F"/>
<path fill-rule="evenodd" clip-rule="evenodd" d="M464.18 90.6328C464.18 90.6328 459.111 93.8977 455.155 102.292C455.153 102.295 455.152 102.298 455.151 102.301C453.006 106.065 450.465 111.011 448.207 115.574C446.782 118.116 445.689 119.986 445.356 120.552C445.626 120.114 446.389 118.869 447.406 117.2C444.565 122.998 442.342 127.826 442.247 128.216C442.107 128.768 442.885 131.844 443.743 133.875C443.86 133.954 443.93 133.996 443.93 133.996C443.93 133.996 442.965 129.105 443.086 128.142C443.207 127.172 448.442 116.483 448.801 115.879C448.942 115.643 450.2 113.116 451.679 110.132C454.021 106.219 456.262 102.396 456.932 100.997C458.076 98.5998 460.824 94.8365 463.362 92.2456C463.368 92.2395 463.368 92.2329 463.368 92.2329C463.668 91.9287 463.963 91.6372 464.25 91.3713C464.231 91.1186 464.205 90.8729 464.18 90.6328Z" fill="#00DABE"/>
<path fill-rule="evenodd" clip-rule="evenodd" d="M463.131 140.038C463.131 140.038 461.145 140.188 459.22 140.343C457.383 140.109 455.015 139.823 454.274 139.795C453.421 139.758 451.048 139.491 449.258 139.28C449.249 139.276 449.244 139.276 449.239 139.276C448.139 139.037 447.389 138.859 447.389 138.859C447.389 138.859 446.149 137.361 445.114 136.079C445.463 136.182 446.657 136.519 447.72 136.776C448.983 137.076 450.307 137.319 450.307 137.319C450.307 137.319 448.442 135.868 448.079 135.204C447.72 134.544 447.417 132.911 447.417 132.911L451.929 133.697C451.929 133.697 449.883 130.856 449.16 130.252C448.442 129.649 446.517 128.684 446.517 128.684L445.431 128.324C445.431 128.324 447.118 128.142 447.78 128.38C448.442 128.624 449.463 128.928 449.463 128.928L450.848 124.758C450.848 124.758 452.05 129.649 453.612 131.343C455.029 132.868 458.894 135.382 459.625 135.85L459.63 135.854L463.131 140.038Z" fill="#00A48F"/>
<path fill-rule="evenodd" clip-rule="evenodd" d="M499.974 198.285L472.099 200.079L469.632 200.235L450.655 201.459L451.69 183.161L451.729 182.39L451.812 180.952L464.314 180.666L497.954 179.896L498.868 188.239L499.974 198.285Z" fill="#00CCB2"/>
<path fill-rule="evenodd" clip-rule="evenodd" d="M498.868 188.239C492.201 188.097 472.099 186.918 472.099 186.918V200.079L469.632 200.235L470.341 188.926C469.447 188.511 456.459 184.593 451.69 183.161C450.604 182.83 449.945 182.636 449.945 182.636L451.729 182.39L464.314 180.667L497.954 179.896L498.868 188.239Z" fill="#00A48F"/>
<path fill-rule="evenodd" clip-rule="evenodd" d="M506.493 88.5019C506.493 88.5019 505.522 96.3781 504.326 106.392C502.933 118.116 501.233 132.774 500.427 141.156C500.082 144.79 499.865 149.991 499.73 155.833C499.539 164.345 499.532 174.216 499.59 182.565C493.678 182.798 479.795 183.387 473.326 183.906C466.506 184.456 454.208 183.135 449.945 182.636C451.237 169.48 453.007 153.572 453.793 142.664C453.844 141.913 453.908 141.143 453.979 140.359C454.023 139.905 454.062 139.439 454.106 138.973C454.496 135.048 455.065 130.779 455.749 126.452C457.986 112.164 461.405 97.2785 463.361 92.2455C463.368 92.239 463.368 92.2329 463.368 92.2329C463.681 91.4364 463.956 90.8855 464.18 90.6328C465.778 88.8389 470.68 86.6102 473.326 85.4964C473.333 85.4898 473.339 85.4898 473.339 85.4898C474.381 85.0494 475.071 84.784 475.071 84.784L496.471 83.1123L506.493 88.5019Z" fill="#00CCB2"/>
<path fill-rule="evenodd" clip-rule="evenodd" d="M464.25 91.371C464.851 90.8141 465.419 90.3475 465.944 89.9974C468.794 88.1001 473.064 85.6515 473.326 85.4961C470.68 86.61 465.777 88.8386 464.179 90.6325C463.956 90.8852 463.681 91.4361 463.368 92.2326C463.668 91.928 463.962 91.6364 464.25 91.371Z" fill="#00DABE"/>
<path fill-rule="evenodd" clip-rule="evenodd" d="M489.791 114.786L478.906 132.632L460.804 137.26L463.13 140.038C463.13 140.038 459.522 140.309 457.312 140.492C456.616 140.548 455.371 140.406 453.994 140.186C453.989 140.243 453.984 140.302 453.978 140.359C458.132 141.868 467.075 145.022 470.034 145.295C470.034 145.295 477.295 147.549 482.242 149.991C486.007 151.856 495.441 154.615 499.73 155.833C499.864 149.991 500.081 144.789 500.426 141.155C501.232 132.774 502.932 118.116 504.326 106.392L489.791 114.786Z" fill="#00A48F"/>
<path fill-rule="evenodd" clip-rule="evenodd" d="M486.345 107.278L479.431 106.548L480.026 104.699L486.94 105.429L486.345 107.278Z" fill="white"/>
<path fill-rule="evenodd" clip-rule="evenodd" d="M456.651 121.009C456.474 122.02 456.302 123.04 456.134 124.055C455.999 124.856 455.873 125.656 455.747 126.452C455.668 126.962 455.589 127.472 455.514 127.978C455.36 128.97 455.22 129.957 455.08 130.935L452.731 133.757C452.731 133.757 451.314 132.475 450.726 131.432C450.545 131.108 450.354 130.654 450.186 130.182C449.808 129.148 449.51 128.034 449.51 128.034C449.51 128.034 450.363 123.19 450.862 122.464C451.356 121.739 454.516 121.149 454.969 121.06C455.062 121.041 455.206 121.027 455.374 121.023C455.766 120.999 456.297 121.004 456.651 121.009Z" fill="#58BAD3"/>
<path fill-rule="evenodd" clip-rule="evenodd" d="M456.134 124.056C455.999 124.856 455.873 125.656 455.747 126.452C455.668 126.962 455.589 127.473 455.514 127.978L453.976 128.399C453.976 128.169 454.741 126.588 454.741 126.588C454.741 126.588 455.104 125.002 455.463 124.683C455.664 124.505 455.906 124.262 456.134 124.056Z" fill="#0099B8"/>
<path fill-rule="evenodd" clip-rule="evenodd" d="M455.374 121.022C454.097 121.472 451.92 122.277 451.449 122.689C450.773 123.278 450.228 125.904 450.186 126.451C450.144 126.966 450.181 129.863 450.186 130.181C449.808 129.147 449.51 128.033 449.51 128.033C449.51 128.033 450.363 123.189 450.862 122.464C451.356 121.739 454.516 121.149 454.969 121.06C455.062 121.041 455.206 121.027 455.374 121.022Z" fill="#85E4E0"/>
<path fill-rule="evenodd" clip-rule="evenodd" d="M512.861 102.166C511.644 108.26 504.647 120.648 500.619 127.429L500.614 127.434C498.932 130.275 497.766 132.133 497.766 132.133C497.766 132.133 491.953 139.766 489.744 141.667C487.539 143.571 477.526 146.286 476.08 146.557C474.635 146.829 468.23 144.386 465.433 142.935C462.636 141.484 454.427 137.319 453.434 136.05C452.441 134.782 452.46 133.196 452.46 133.196C452.46 133.196 452.464 132.545 452.544 131.707C452.651 130.603 452.894 129.18 453.448 128.548C454.427 127.444 455.84 127.242 455.84 127.242C455.84 127.242 458.306 127.135 459.387 127.561C460.469 127.991 468.454 130.163 470.1 130.57C470.351 130.631 470.692 130.743 471.088 130.874C473.111 131.572 476.579 133.027 476.952 133.186C476.975 133.191 476.985 133.196 476.985 133.196C479.824 131.806 480.052 130.373 480.006 129.784C480.127 129.625 480.248 129.466 480.369 129.301C480.873 129.044 481.656 128.553 481.768 127.991C481.819 127.739 481.763 127.542 481.656 127.397C481.93 126.942 482.169 126.489 482.355 126.049C482.355 126.049 482.36 126.049 482.36 126.044C482.383 126.025 482.406 126.002 482.424 125.984C482.755 125.655 483.832 124.987 483.166 124.186C483.096 124.093 482.988 124.027 482.854 123.985C482.854 123.985 482.835 123.943 482.812 123.854C482.728 123.54 482.593 122.647 483.166 121.224C483.166 121.224 486.005 113.076 489.515 105.812L489.52 105.803C491.086 102.564 492.787 99.4941 494.429 97.4067C496.293 95.0292 498.358 93.2227 500.256 91.8795C501.053 91.3132 501.821 90.8312 502.53 90.4193H502.539C504.941 89.0336 506.674 88.5005 506.674 88.5005C506.674 88.5005 507.351 88.9311 508.264 89.7543C509.504 90.8686 511.187 92.7126 512.203 95.1977C513.005 97.14 513.401 99.48 512.861 102.166Z" fill="#00CCB2"/>
<path fill-rule="evenodd" clip-rule="evenodd" d="M476.791 133.191C476.404 133.092 468.512 131.033 467.691 130.916C466.847 130.799 462.037 129.105 460.47 128.576C458.909 128.047 457.133 127.991 457.133 127.991L458.965 130.13C458.867 130.074 457.328 129.156 456.927 128.875C456.517 128.585 454.755 128.379 453.981 128.875C453.203 129.372 452.364 131.707 452.364 131.707C452.471 130.602 452.713 129.18 453.268 128.548C454.247 127.443 455.66 127.242 455.66 127.242C455.66 127.242 458.126 127.134 459.207 127.56C460.289 127.991 468.274 130.163 469.919 130.569C471.518 130.967 476.483 133.059 476.791 133.191Z" fill="#00DABE"/>
<path fill-rule="evenodd" clip-rule="evenodd" d="M500.257 91.8794C500.257 91.8794 491.088 103.322 488.683 109.964C486.277 116.604 483.382 124.673 483.382 124.673C483.382 124.673 483.14 124.355 482.814 123.854C482.73 123.54 482.594 122.646 483.168 121.224C483.168 121.224 486.007 113.076 489.516 105.813L489.522 105.803C491.088 102.564 492.789 99.4944 494.43 97.4071C496.295 95.0291 498.36 93.2226 500.257 91.8794Z" fill="#00DABE"/>
<path fill-rule="evenodd" clip-rule="evenodd" d="M512.205 95.1983L508.774 109.313L500.62 127.43L500.616 127.435C500.392 127.706 493.241 136.383 490.006 139.795C486.72 143.263 479.779 144.438 476.954 144.592C474.129 144.746 470.101 143.179 470.101 143.179C470.101 143.179 478.459 141.971 482.067 141.124C485.676 140.277 492.29 133.196 492.29 133.196L505.194 106.496C505.194 106.496 508.755 94.3419 508.266 89.7549C509.506 90.8692 511.188 92.7127 512.205 95.1983Z" fill="#00A48F"/>
<path fill-rule="evenodd" clip-rule="evenodd" d="M476.804 133.195C476.804 133.195 480.018 132.522 481.441 130.572C482.864 128.621 482.987 126.677 482.987 126.677C482.987 126.677 483.724 125.357 483.198 124.671C482.671 123.984 478.287 126.677 478.287 126.677L476.804 133.195Z" fill="#00A48F"/>
<path fill-rule="evenodd" clip-rule="evenodd" d="M482.243 125.984C482.225 126.003 482.201 126.026 482.178 126.045C482.178 126.05 482.173 126.05 482.173 126.05C481.777 126.401 480.775 126.971 480.775 126.971C480.775 126.971 481.246 127.06 481.474 127.398C481.581 127.542 481.637 127.739 481.586 127.992C481.474 128.553 480.691 129.045 480.188 129.302C479.945 129.428 479.768 129.499 479.768 129.499C479.768 129.499 479.81 129.602 479.824 129.784C479.871 130.374 479.642 131.806 476.803 133.196C476.803 133.196 476.794 133.191 476.771 133.187C476.43 133.041 473.526 131.82 471.48 131.076C471.279 131.006 471.088 130.935 470.906 130.875C470.925 130.851 470.948 130.832 470.972 130.81L471.149 130.632C471.209 130.57 471.27 130.505 471.34 130.44L471.503 130.276C471.843 129.939 472.235 129.555 472.659 129.148C472.79 129.021 472.92 128.895 473.055 128.769C473.242 128.595 473.428 128.418 473.615 128.244C473.703 128.16 473.792 128.081 473.88 127.996C473.992 127.898 474.099 127.795 474.211 127.697C474.393 127.533 474.575 127.369 474.752 127.21C474.869 127.107 474.985 127.009 475.102 126.906C475.251 126.779 475.391 126.658 475.531 126.545C475.545 126.537 475.559 126.522 475.573 126.513C475.661 126.438 475.745 126.368 475.834 126.303C476.337 125.895 476.789 125.577 477.13 125.404C477.75 125.085 478.561 124.748 479.386 124.477C480.682 124.037 482.015 123.766 482.672 123.985C482.807 124.028 482.915 124.093 482.985 124.187C483.651 124.987 482.574 125.656 482.243 125.984Z" fill="#58BAD3"/>
<path fill-rule="evenodd" clip-rule="evenodd" d="M479.386 124.477C478.523 124.898 477.493 125.441 476.803 125.947C475.712 126.747 472.766 129.752 471.48 131.076C471.279 131.006 471.088 130.936 470.906 130.875C470.925 130.851 470.948 130.833 470.972 130.809L471.149 130.631C471.209 130.571 471.27 130.505 471.34 130.44L471.503 130.276C471.843 129.939 472.235 129.555 472.659 129.148C472.79 129.021 472.92 128.895 473.055 128.769C473.242 128.596 473.428 128.418 473.615 128.245C473.703 128.16 473.792 128.081 473.88 127.996C473.992 127.898 474.099 127.795 474.211 127.697C474.393 127.533 474.575 127.369 474.752 127.21C474.869 127.107 474.985 127.009 475.102 126.906C475.246 126.784 475.391 126.663 475.531 126.546C475.545 126.536 475.559 126.522 475.573 126.513C475.661 126.438 475.745 126.368 475.834 126.302C476.337 125.895 476.789 125.577 477.13 125.404C477.75 125.085 478.561 124.748 479.386 124.477Z" fill="#85E4E0"/>
<path fill-rule="evenodd" clip-rule="evenodd" d="M493.212 82.3611C485.298 87.4591 477.296 86.7917 477.296 86.7917C477.552 85.6259 477.705 84.557 477.782 83.592C478.101 79.5502 477.13 77.2635 477.13 77.2635L490.904 74.7568C490.866 75.8969 490.955 76.9008 491.115 77.7755C491.697 80.9234 493.212 82.3611 493.212 82.3611Z" fill="#B57E65"/>
<path fill-rule="evenodd" clip-rule="evenodd" d="M491.115 77.7765C489.051 81.0863 484.25 86.9869 477.782 83.5929C478.101 79.5512 477.13 77.2645 477.13 77.2645L490.904 74.7578C490.866 75.8979 490.955 76.9018 491.115 77.7765Z" fill="#6F4C3C"/>
<path fill-rule="evenodd" clip-rule="evenodd" d="M496.471 83.1139C496.471 83.1139 477.913 98.4085 473.335 105.803C473.335 105.803 473.401 90.3447 475.06 84.8081C475.065 84.7987 475.07 84.7941 475.07 84.7847L477.433 84.1155L477.517 83.5164L477.755 81.8362C477.755 81.8362 477.755 81.8316 477.759 81.8269L477.829 81.3167V81.3027L477.834 81.284C477.834 81.284 480.034 83.1186 483.791 82.6085C484.966 82.4493 486.146 82.0281 487.218 81.5274C487.292 81.4946 487.367 81.4618 487.437 81.4244C487.577 81.3589 487.712 81.2887 487.847 81.2185C487.95 81.167 488.052 81.115 488.15 81.0593C488.229 81.0172 488.304 80.9751 488.383 80.933C488.5 80.8675 488.612 80.8019 488.723 80.7364C488.817 80.6849 488.91 80.6283 488.999 80.5773C489.036 80.5539 489.073 80.5352 489.11 80.5113C490.481 79.6834 491.39 78.9346 491.39 78.9346L493.213 82.3604L496.471 83.1139Z" fill="white"/>
<path fill-rule="evenodd" clip-rule="evenodd" d="M489.109 80.5112C486.629 83.3755 482.298 85.87 477.516 83.5163L477.753 81.8357C477.753 81.8357 477.753 81.831 477.758 81.8268C477.805 81.6625 477.833 81.4945 477.828 81.3167V81.3022L477.833 81.2834C477.833 81.2834 480.033 83.1181 483.79 82.6079C484.965 82.4493 486.144 82.0276 487.216 81.5273C487.291 81.4945 487.361 81.4613 487.436 81.4239C487.575 81.3588 487.711 81.2881 487.846 81.2184C487.948 81.1664 488.051 81.115 488.149 81.0593C488.228 81.0167 488.307 80.9746 488.382 80.9324C488.498 80.8674 488.61 80.8014 488.722 80.7359C488.815 80.6844 488.909 80.6334 488.997 80.5772C489.034 80.5538 489.072 80.5351 489.109 80.5112Z" fill="#D0D0D0"/>
<path fill-rule="evenodd" clip-rule="evenodd" d="M496.777 58.4961C496.617 55.6548 495.898 52.7382 494.158 50.451C492.259 47.9542 489.41 46.8459 486.407 46.4205C482.797 45.9094 478.601 46.3142 475.571 48.5467C474.118 49.6165 472.437 50.8563 471.654 52.5449C470.673 54.664 471.085 57.4262 471.241 59.6699C471.241 59.6788 471.245 59.6849 471.246 59.6937C471.241 60.2072 471.244 60.7201 471.24 61.2265C471.227 63.3279 471.039 65.4227 471.209 67.5231C471.495 71.0641 472.935 74.3196 475.071 77.1122C476.849 79.4359 479.427 81.7315 482.506 81.6865C485.767 81.6383 488.919 79.0806 490.883 76.6423C493.072 73.9264 494.557 70.6021 495.629 67.2872C496.537 64.4782 496.944 61.4483 496.777 58.4961Z" fill="#B57E65"/>
<path fill-rule="evenodd" clip-rule="evenodd" d="M484.126 66.9327C483.847 66.7474 483.527 66.753 483.224 66.8438C483.211 66.3229 483.205 65.8067 483.126 65.29C483.115 65.2123 482.984 65.2128 482.972 65.29C482.879 65.8895 482.862 66.4858 482.88 67.0937C482.884 67.2374 483.023 67.302 483.144 67.2468C484.414 66.6655 484.616 68.6391 483.978 69.3421C483.758 69.5836 483.482 69.6205 483.173 69.6425C482.968 69.657 482.932 69.9299 483.125 70.0006C483.892 70.2795 484.508 69.4993 484.652 68.8216C484.785 68.1922 484.708 67.3198 484.126 66.9327Z" fill="#3A180F"/>
<path fill-rule="evenodd" clip-rule="evenodd" d="M485.924 73.5458C485.847 73.6624 485.77 73.7789 485.7 73.9025C485.336 75.2171 483.738 75.9229 482.44 75.8648C480.772 75.7937 479.41 74.7379 479.059 73.0666C479.033 72.9369 479.142 72.8532 479.238 72.8724C479.845 73.2224 481.149 73.844 482.875 73.8566C484.403 73.8697 485.399 73.6235 485.93 73.4358H485.936C485.955 73.4681 485.955 73.507 485.924 73.5458Z" fill="white"/>
<path fill-rule="evenodd" clip-rule="evenodd" d="M488.839 61.4707C488.804 61.349 488.684 61.246 488.555 61.2512C488.437 61.2568 488.289 61.3391 488.27 61.4707C488.251 61.6143 488.215 61.7524 488.209 61.8975C488.204 62.0323 488.191 62.1666 488.179 62.3009C488.156 62.5653 488.134 62.8307 488.138 63.0965C488.14 63.2739 488.29 63.4438 488.472 63.4354C488.657 63.4269 488.802 63.2865 488.807 63.0965C488.813 62.8293 488.851 62.5663 488.878 62.3009C488.891 62.1717 488.902 62.0416 488.908 61.9111C488.914 61.7599 488.88 61.6153 488.839 61.4707Z" fill="#3A180F"/>
<path fill-rule="evenodd" clip-rule="evenodd" d="M490.699 58.076C490.468 57.8916 490.156 57.791 489.877 57.7034C489.545 57.5991 489.206 57.5373 488.859 57.5162C488.258 57.4797 487.561 57.541 487.097 57.9707C486.997 58.0633 487.128 58.2389 487.242 58.1621C487.717 57.8429 488.331 57.8326 488.874 57.9229C489.165 57.9707 489.457 58.0409 489.738 58.1303C490 58.2136 490.234 58.347 490.489 58.4429C490.685 58.5169 490.868 58.2108 490.699 58.076Z" fill="#3A180F"/>
<path fill-rule="evenodd" clip-rule="evenodd" d="M478.871 60.5796C478.927 60.4669 479.063 60.3868 479.189 60.4163C479.305 60.4435 479.435 60.5516 479.429 60.6845C479.423 60.8291 479.434 60.9714 479.413 61.116C479.395 61.2494 479.383 61.3837 479.37 61.518C479.346 61.7815 479.319 62.0473 479.268 62.3071C479.234 62.4812 479.056 62.6206 478.878 62.579C478.698 62.5369 478.581 62.3717 478.61 62.184C478.652 61.9205 478.662 61.6547 478.683 61.3888C478.693 61.2592 478.706 61.1296 478.724 60.9999C478.744 60.8502 478.803 60.714 478.871 60.5796Z" fill="#3A180F"/>
<path fill-rule="evenodd" clip-rule="evenodd" d="M477.651 56.8994C477.911 56.7604 478.237 56.7188 478.526 56.6846C478.871 56.643 479.215 56.6444 479.561 56.6879C480.158 56.7628 480.833 56.9519 481.212 57.4601C481.293 57.5692 481.133 57.718 481.034 57.6211C480.626 57.22 480.023 57.0969 479.473 57.0848C479.178 57.0792 478.878 57.0937 478.585 57.1297C478.313 57.1629 478.059 57.2519 477.792 57.2991C477.585 57.3356 477.46 57.001 477.651 56.8994Z" fill="#3A180F"/>
<path fill-rule="evenodd" clip-rule="evenodd" d="M471.753 66.8205C471.665 66.3942 471.55 66.0619 471.532 65.6131C471.519 65.2752 471.363 64.9953 471.329 64.6728C471.291 64.3111 471.578 64.0607 471.639 63.7101C471.674 63.5075 471.648 63.2857 471.606 63.0853C471.545 62.7919 471.42 62.4858 471.167 62.3655C471.403 62.059 471.534 61.7164 471.501 61.3186C471.466 60.9105 471.302 60.5216 471.294 60.1102C471.286 59.6693 471.487 59.2537 471.536 58.818C471.6 58.2438 471.45 57.6793 471.429 57.1079C471.426 57.0307 471.352 57.011 471.301 57.0391C471.238 56.9609 471.121 56.9263 471.027 57.019C470.646 57.3934 470.352 57.619 470.194 58.1497C470.005 58.7796 469.878 59.4428 469.766 60.0905C469.535 61.4216 469.442 62.7643 469.604 64.1089C469.717 65.0472 469.94 65.9819 470.202 66.8898C470.366 67.4589 470.612 68.4225 471.29 68.5737C471.382 68.5943 471.461 68.5587 471.513 68.4829C471.834 68.0154 471.866 67.3634 471.753 66.8205Z" fill="#3A180F"/>
<path fill-rule="evenodd" clip-rule="evenodd" d="M497.821 61.5811C497.694 61.2371 497.355 60.7007 496.914 60.7841C496.295 60.9006 496.484 61.853 496.344 62.27C496.223 62.628 495.974 62.8751 495.948 63.2697C495.914 63.7859 496.045 64.2707 495.969 64.7926C495.898 65.2779 495.781 65.7216 495.562 66.1624C495.402 66.4844 495.231 66.7975 495.194 67.1626C495.138 67.7041 495.478 68.21 495.236 68.7262C495.127 68.9593 495.017 69.1928 494.936 69.4376C494.815 69.8003 494.768 70.2416 495.088 70.3989C495.121 70.4831 495.203 70.5486 495.301 70.5093C495.83 70.2973 496.062 69.6398 496.297 69.1657C496.66 68.4398 496.908 67.7705 497.046 66.9623C497.207 66.0145 497.437 65.1033 497.67 64.1715C497.868 63.3778 498.117 62.3814 497.821 61.5811Z" fill="#3A180F"/>
<path fill-rule="evenodd" clip-rule="evenodd" d="M493.738 71.2733C494.022 69.8557 494.121 68.5546 494.083 67.8222C494.453 67.2835 496.203 64.6959 497.107 62.7153L496.556 62.4616C495.804 64.109 494.405 66.2548 493.804 67.1515C493.004 66.8562 489.334 65.7967 484.651 65.1246C480.179 64.4834 474.015 64.8354 472.656 64.9247C472.182 64.1071 471.057 62.0282 470.509 59.8276L469.921 59.9751C470.572 62.5894 471.964 64.9636 472.293 65.5037C472.191 66.2469 472.04 67.6678 472.077 69.3746C471.524 67.738 470.965 66.0264 470.688 65.0141L470.103 65.1756C470.517 66.6868 472.144 71.9351 472.155 72.009C472.696 75.7232 475.538 78.7124 475.538 78.7124C475.538 78.7124 478.335 81.7015 482.125 82.0643C485.914 82.426 491.115 77.7759 492.59 74.8171C492.733 74.5311 492.861 74.2274 492.981 73.918L492.99 73.9237C493.081 73.7599 495.216 69.9063 495.847 68.4142L496.019 66.9363C495.724 67.635 494.342 70.1379 493.738 71.2733Z" fill="white"/>
<path fill-rule="evenodd" clip-rule="evenodd" d="M500.169 61.778C498.561 68.4846 493.95 72.1627 493.95 72.1627C495.796 68.9807 496.924 62.5829 496.472 60.4114C496.333 59.7416 496.216 59.0963 496.024 58.4598V58.4546C495.582 57.0131 494.728 55.6091 492.23 54.0459C491.801 53.7745 491.373 53.5363 490.939 53.3304C487.741 51.7812 484.366 51.8374 479.359 52.7173C473.672 53.7141 472.111 55.5862 471.117 59.2975C471.113 59.3158 471.109 59.3345 471.103 59.3532C470.162 62.9948 471.537 69.8647 471.602 70.1881C469.304 67.1549 468.353 63.8789 468.05 59.9756C467.915 58.2627 467.906 56.4239 467.962 54.4349C468.139 47.9155 472.111 42.7533 478.245 40.0342C483.056 37.8996 489.479 37.886 494.64 41.2603C496.058 42.187 497.381 43.3711 498.547 44.836C499.305 45.7823 499.875 46.8016 500.304 47.8434L500.314 47.8546L500.42 48.1167L500.458 48.2103C502.868 54.5519 500.169 61.778 500.169 61.778Z" fill="#00CCB2"/>
<path fill-rule="evenodd" clip-rule="evenodd" d="M500.168 61.7768C498.56 68.4834 493.949 72.1615 493.949 72.1615C495.795 68.9795 496.923 62.5817 496.471 60.4102C496.332 59.7405 496.215 59.0951 496.024 58.4586V58.4534C496.024 58.4534 498.005 59.0384 498.303 57.5085C498.606 55.9734 497.474 53.441 497.106 51.4478C496.742 49.454 497.283 49.2102 497.702 48.1249C498.126 47.0391 498.332 46.4962 497.959 45.7099C497.604 44.9752 497.166 44.1327 497.11 44.0298L500.313 47.8534L500.42 48.1155L500.457 48.2091C502.867 54.5507 500.168 61.7768 500.168 61.7768Z" fill="#00A48F"/>
<path fill-rule="evenodd" clip-rule="evenodd" d="M473.506 74.7574C473.506 74.7574 475.684 76.5995 477.13 77.0071C478.576 77.4148 481.326 74.836 483.513 74.3694C485.701 73.9028 489.903 74.2225 490.765 72.1651C491.628 70.1072 493.211 67.6455 493.211 67.6455C493.211 67.6455 493.369 70.1948 492.771 72.8699C492.173 75.5451 490.891 76.4731 488.522 79.0575C486.154 81.6418 483.113 81.9765 480.62 81.3395C478.129 80.703 474.503 78.0789 473.506 74.7574Z" fill="#F0F0F0"/>
<path fill-rule="evenodd" clip-rule="evenodd" d="M494.64 41.2603C494.034 41.1246 493.251 40.9889 491.629 40.6987C488.673 40.1699 489.102 39.6125 487.061 39.3696C485.023 39.1257 483.271 39.3696 480.199 40.1558C477.131 40.9416 477.914 41.3633 477.131 42.6925C476.348 44.0211 474.787 45.1682 472.684 46.2255C470.577 47.2785 470.819 47.8261 469.524 50.1198C468.232 52.4126 468.773 53.321 468.652 55.6751C468.591 56.8774 468.312 58.5903 468.05 59.9756C467.915 58.2627 467.906 56.4234 467.962 54.4344C468.139 47.9155 472.111 42.7528 478.245 40.0342C483.056 37.8996 489.48 37.886 494.64 41.2603Z" fill="#00DABE"/>
<path fill-rule="evenodd" clip-rule="evenodd" d="M490.938 53.3296C487.74 51.78 484.365 51.8367 479.359 52.7161C473.672 53.7129 472.11 55.585 471.117 59.2968C471.112 59.315 471.108 59.3337 471.103 59.3525C471.252 58.3888 471.448 57.3634 471.686 56.6525C472.259 54.9489 473.765 53.3806 475.448 52.6557C477.131 51.9303 478.035 51.3874 480.319 50.961C482.608 50.5398 483.75 50.7836 485.554 51.1435C487.358 51.5086 488.607 51.1435 489.764 52.2293C490.108 52.5527 490.523 52.9412 490.938 53.3296Z" fill="#00DABE"/>
<path fill-rule="evenodd" clip-rule="evenodd" d="M645.576 130.091C645.53 130.442 645.466 130.878 645.387 131.394C644.871 134.588 643.709 140.687 642.561 146.209C641.81 149.821 641.066 153.188 640.518 155.344C640.198 156.621 640.127 159.22 640.218 162.527C640.544 174.717 643.044 196.478 643.044 196.478C643.044 196.478 631.256 198.866 624.69 198.701C618.118 198.528 591.67 194.6 591.67 194.6C591.67 194.6 593.047 188.462 594.549 180.994C596.573 170.941 598.824 158.479 598.25 155.344C597.982 153.883 597.604 149.451 597.238 143.71C597.049 140.819 596.859 137.598 596.697 134.258C596.037 120.99 595.671 105.81 596.546 101.881C596.56 101.822 596.573 101.769 596.585 101.716C596.67 101.372 596.775 101.127 596.886 101.008L596.892 101.001C597.597 100.274 599.444 99.4009 601.65 98.5543C601.657 98.5543 601.657 98.5477 601.664 98.5477C601.97 98.4288 602.29 98.3095 602.61 98.1906L602.616 98.1836C604.705 97.417 606.989 96.6822 608.843 96.1136C611.023 95.4523 612.609 95.0156 612.609 95.0156L625.78 96.2193L628.456 97.6683L637.822 102.735C637.822 102.735 638.501 106.352 639.507 109.428C640.518 112.504 646.079 126.156 645.576 130.091Z" fill="#EDA1AB"/>
<path fill-rule="evenodd" clip-rule="evenodd" d="M645.389 131.395C644.873 134.589 643.711 140.688 642.563 146.211C641.812 149.822 641.067 153.189 640.519 155.345C640.199 156.622 640.128 159.221 640.219 162.528C634.599 164.314 616.181 170.108 611.148 171.087C606.912 171.907 598.852 177.715 594.55 180.995C596.574 170.942 598.825 158.48 598.251 155.345C597.853 153.143 597.194 144.24 596.698 134.259L603.916 114.119C603.916 114.119 606.332 131.931 605.953 135.185C605.901 135.642 605.862 136.177 605.829 136.74C607.526 137.698 610.62 139.365 612.219 139.723C614.496 140.238 630.501 137.93 630.501 137.93L629.62 141.813L632.517 138.102C632.517 138.102 641.805 134.57 645.389 131.395Z" fill="#DB909A"/>
<path fill-rule="evenodd" clip-rule="evenodd" d="M637.577 115.569L631.242 115.644L630.994 114.194L637.329 114.119L637.577 115.569Z" fill="#EB8991"/>
<path fill-rule="evenodd" clip-rule="evenodd" d="M637.329 115.384L630.994 115.459L630.747 114.008L637.082 113.934L637.329 115.384Z" fill="white"/>
<path fill-rule="evenodd" clip-rule="evenodd" d="M648.29 154.307C648.29 154.307 646.917 155.109 645.389 154.113C643.86 153.116 643.364 150.218 643.364 150.218L649.77 147.557C649.77 147.557 650.086 148.859 649.995 149.629C649.905 150.398 649.02 153.323 648.29 154.307Z" fill="#EB8991"/>
<path fill-rule="evenodd" clip-rule="evenodd" d="M652.429 143.271C652.424 143.364 652.419 143.462 652.406 143.556C652.01 148.714 648.532 153.95 648.29 154.306C648.373 154.109 649.073 152.514 649.185 151.666C649.213 151.442 649.231 150.95 649.213 150.319C649.166 148.405 648.798 145.175 647.436 143.996C647.315 143.893 647.189 143.786 647.05 143.677C645.543 142.503 643.143 141.244 642.192 140.758C642.178 140.631 642.16 140.467 642.132 140.308C642.076 139.995 641.982 139.699 641.824 139.723L640.603 128.43L638.71 110.931L637.824 102.736C637.824 102.736 642.57 104.646 645.609 109.382C647.287 112.002 649.161 117.951 650.522 124.11V124.115C650.56 124.353 651.739 131.907 652.238 137.875C652.415 140.013 652.508 141.946 652.429 143.271Z" fill="#FFAEB7"/>
<path fill-rule="evenodd" clip-rule="evenodd" d="M647.05 143.678C645.544 142.503 643.144 141.245 642.193 140.758C642.179 140.631 642.16 140.468 642.132 140.309C642.076 139.995 641.983 139.7 641.824 139.724L640.603 128.431V121.602L640.132 111.18C640.132 111.18 644.346 118.223 645.144 120.24C645.936 122.257 648.463 133.85 648.584 136.27C648.682 138.31 647.754 142.223 647.05 143.678Z" fill="#EB8991"/>
<path fill-rule="evenodd" clip-rule="evenodd" d="M631.718 147.077L637.66 118.807L649.492 116.378L643.549 144.648L631.718 147.077Z" fill="#3E5164"/>
<path fill-rule="evenodd" clip-rule="evenodd" d="M649.491 116.378L648.521 115.574L636.689 118.003L630.747 146.273L631.717 147.077L637.659 118.807L649.491 116.378Z" fill="white"/>
<path fill-rule="evenodd" clip-rule="evenodd" d="M649.214 150.319C649.065 150.478 648.911 150.628 648.761 150.759C647.2 152.149 642.086 152.813 642.086 152.813L642.208 140.977C642.208 140.977 642.202 140.888 642.193 140.757C643.228 141.286 645.992 142.737 647.437 143.996C648.799 145.175 649.167 148.405 649.214 150.319Z" fill="#0099B8"/>
<path fill-rule="evenodd" clip-rule="evenodd" d="M646.519 147.057V147.062C646.476 147.24 646.425 147.432 646.36 147.632C646.309 147.797 646.248 147.965 646.182 148.138C646.145 148.241 646.103 148.349 646.057 148.456C645.996 148.62 645.926 148.784 645.847 148.953C645.805 149.051 645.758 149.149 645.712 149.248C645.656 149.369 645.6 149.486 645.544 149.603C645.483 149.725 645.427 149.842 645.362 149.959C645.297 150.081 645.237 150.198 645.171 150.315C645.171 150.319 645.167 150.319 645.167 150.323C645.101 150.445 645.036 150.562 644.966 150.679C644.887 150.82 644.812 150.946 644.733 151.073C644.709 151.105 644.691 151.142 644.667 151.176C644.598 151.288 644.528 151.391 644.463 151.494C644.378 151.615 644.295 151.732 644.22 151.831C644.178 151.882 644.141 151.929 644.099 151.976C644.061 152.018 644.029 152.06 643.992 152.098C642.929 153.263 633.699 154.147 630.417 152.724C630.417 152.724 629.149 151.939 628.902 150.867C628.888 150.815 628.874 150.754 628.874 150.703C628.725 149.669 629.405 148.512 629.405 148.512C629.405 148.512 628.529 147.886 628.767 147.076C628.786 147.01 628.809 146.94 628.851 146.865C629.321 145.953 629.652 145.634 629.652 145.634L629.648 145.616C629.634 145.541 629.602 145.326 629.648 145.054C629.718 144.61 629.993 144.015 630.92 143.758C630.92 143.758 630.897 143.397 631.051 142.943C631.167 142.625 631.363 142.255 631.723 141.933C631.853 141.811 632.006 141.698 632.184 141.6C632.184 141.6 635.134 142.541 636.817 142.367C636.817 142.367 636.258 141.956 635.89 141.212C635.787 140.996 635.694 140.762 635.638 140.495C635.638 140.495 639.092 140.66 640.519 140.495C641.05 140.43 641.614 140.556 642.169 140.762C642.892 141.039 643.591 141.46 644.141 141.839H644.145C644.332 141.97 644.5 142.092 644.649 142.204C644.956 142.419 645.204 142.812 645.427 143.266C645.562 143.547 645.689 143.851 645.801 144.16C646.071 144.876 646.29 145.597 646.519 146.036C646.63 146.252 646.616 146.613 646.519 147.057Z" fill="#58BAD3"/>
<path fill-rule="evenodd" clip-rule="evenodd" d="M642.171 140.761C641.166 140.575 639.985 140.701 639.567 140.748C639.032 140.813 637.609 140.748 637.139 140.748C636.663 140.748 635.638 140.496 635.638 140.496C635.638 140.496 639.091 140.661 640.52 140.496C641.048 140.43 641.617 140.556 642.171 140.761Z" fill="#85E4E0"/>
<path fill-rule="evenodd" clip-rule="evenodd" d="M636.309 148.089C636.309 148.089 635.591 148.73 635.134 148.816C634.671 148.902 629.404 148.512 629.404 148.512C629.404 148.512 628.529 147.884 628.764 147.077C629.214 147.275 630.22 147.672 631.133 147.705C632.354 147.745 634.26 147.738 634.867 147.804C635.467 147.877 636.309 148.089 636.309 148.089Z" fill="#0099B8"/>
<path fill-rule="evenodd" clip-rule="evenodd" d="M634.776 145.807C634.776 145.807 633.659 145.933 632.981 145.979C632.309 146.019 629.652 145.635 629.652 145.635L629.646 145.615C629.633 145.543 629.6 145.324 629.646 145.053C630.24 145.185 631.695 145.496 632.211 145.549C632.877 145.615 634.776 145.807 634.776 145.807Z" fill="#0099B8"/>
<path fill-rule="evenodd" clip-rule="evenodd" d="M632.517 144.16L630.918 143.757C630.918 143.757 630.898 143.4 631.048 142.943L632.517 144.16Z" fill="#0099B8"/>
<path fill-rule="evenodd" clip-rule="evenodd" d="M641.857 141.964C641.857 141.964 639.253 142.579 636.818 142.367C636.818 142.367 636.257 141.957 635.892 141.21C635.918 141.216 636.022 141.223 636.427 141.21C637.06 141.197 638.319 141.898 639.076 141.964C639.834 142.03 641.857 141.964 641.857 141.964Z" fill="#0099B8"/>
<path fill-rule="evenodd" clip-rule="evenodd" d="M639.645 142.321C639.051 142.407 636.224 142.778 635.069 142.639C634.116 142.52 632.504 142.129 631.721 141.931C631.851 141.812 632.008 141.7 632.184 141.601C632.184 141.601 635.134 142.54 636.819 142.368C637.902 142.46 639.253 142.354 639.645 142.321Z" fill="#85E4E0"/>
<path fill-rule="evenodd" clip-rule="evenodd" d="M646.518 146.037C646.29 145.597 646.07 144.877 645.8 144.16C645.688 143.851 645.562 143.548 645.427 143.266C645.204 142.812 644.956 142.42 644.648 142.204C644.5 142.092 644.332 141.97 644.145 141.839H644.14C644.057 141.853 643.828 142.157 643.768 142.41C643.707 142.668 642.974 144.511 642.974 144.511H642.975C642.71 145.187 642.6 146.018 642.118 146.973C641.12 148.972 638.901 149.945 638.877 149.954C638.169 150.212 637.661 150.352 637.661 150.305C637.661 150.179 637.348 147.076 637.348 147.076L636.099 149.411C636.099 149.411 633.065 150.994 632.197 151.157C631.606 151.279 629.885 150.932 628.874 150.703C628.874 150.754 628.888 150.815 628.902 150.867C629.149 151.939 630.417 152.725 630.417 152.725C633.699 154.148 642.929 153.263 643.991 152.098C644.028 152.06 644.061 152.018 644.099 151.976C644.136 151.93 644.173 151.882 644.211 151.836C644.211 151.836 644.215 151.836 644.22 151.831C644.294 151.733 644.378 151.616 644.462 151.494C644.527 151.391 644.598 151.288 644.667 151.176C644.69 151.143 644.709 151.105 644.733 151.073C644.812 150.946 644.887 150.82 644.966 150.68C645.035 150.563 645.101 150.446 645.166 150.324C645.166 150.319 645.171 150.319 645.171 150.315C645.199 150.278 645.218 150.235 645.241 150.198C645.283 150.118 645.324 150.039 645.362 149.959C645.427 149.842 645.483 149.725 645.543 149.603C645.549 149.594 645.553 149.58 645.562 149.571C645.614 149.463 645.665 149.356 645.712 149.247C645.758 149.149 645.805 149.051 645.847 148.953C645.926 148.784 645.996 148.621 646.057 148.457C646.103 148.349 646.145 148.241 646.182 148.138C646.248 147.965 646.308 147.797 646.359 147.633C646.425 147.432 646.476 147.24 646.518 147.062V147.058C646.616 146.613 646.63 146.252 646.518 146.037Z" fill="#0099B8"/>
<path fill-rule="evenodd" clip-rule="evenodd" d="M634.049 76.7686C633.967 75.9009 633.614 75.1333 632.769 74.9705C632.061 74.8343 631.227 75.0688 630.765 75.7001C630.143 76.0871 629.969 77.8693 629.908 78.3626C629.844 78.8919 629.811 79.4245 629.753 79.9543C629.689 80.5361 629.424 81.2779 629.368 81.9392C629.342 82.2387 629.356 82.57 629.52 82.8223C629.744 83.1649 630.143 83.2136 630.495 83.1396C631.292 82.973 632.028 82.3398 632.565 81.7033C633.655 80.4111 634.214 78.5292 634.049 76.7686Z" fill="#FFD3D1"/>
<path fill-rule="evenodd" clip-rule="evenodd" d="M625.867 88.1843C625.625 89.2822 625.619 91.4716 625.671 93.4691C625.73 95.6786 625.782 96.2214 625.782 96.2214C625.782 96.2214 625.279 99.6136 620.691 100.037C616.109 100.467 612.611 95.0168 612.611 95.0168C612.931 94.0049 613.172 92.7217 613.349 91.5446C613.622 89.7451 613.74 88.1843 613.74 88.1843C613.74 88.1843 626.376 85.8756 625.867 88.1843Z" fill="#FFD3D1"/>
<path fill-rule="evenodd" clip-rule="evenodd" d="M625.867 88.1843C625.625 89.2822 625.619 91.4716 625.671 93.4691C624.385 94.977 622.623 96.4124 620.691 96.2009C617.976 95.9032 614.947 93.178 613.349 91.5446C613.622 89.7451 613.74 88.1843 613.74 88.1843C613.74 88.1843 626.376 85.8756 625.867 88.1843Z" fill="#FF9BA1"/>
<path fill-rule="evenodd" clip-rule="evenodd" d="M632.376 68.163C632.399 65.691 632.001 63.1632 630.475 61.2041C628.879 59.1547 626.389 58.0324 623.892 57.6248C618.513 56.7473 612.633 58.6137 609.734 63.525C608.763 65.1705 608.082 67.1058 607.761 69.077C607.698 69.0176 607.091 74.0323 606.992 76.4618C606.902 78.6675 607.033 80.8943 607.725 83.0018C608.901 86.5788 611.544 89.1458 614.504 91.2795C615.973 92.3386 617.567 93.5414 619.405 93.7936C621.209 94.0407 622.749 93.1553 624.067 91.9894C627.214 89.2052 630.253 85.6212 631.603 81.5509C632.394 79.1673 632.339 76.7239 632.454 74.2485C632.547 72.2511 632.868 70.1319 632.376 68.163Z" fill="#FAE0BD"/>
<path fill-rule="evenodd" clip-rule="evenodd" d="M609.227 76.2468C609.151 75.5411 608.819 74.4473 608.079 74.2063C608.044 74.1946 608.012 74.1974 607.981 74.2044C607.772 74.0177 607.517 73.8866 607.221 73.8295C606.663 73.7214 605.994 73.8132 605.56 74.2124C605.028 74.7019 604.844 75.5776 604.748 76.2651C604.639 77.0382 604.635 77.8292 604.727 78.6051C604.913 80.1842 605.766 81.7857 607.272 82.4203C607.832 82.6567 608.362 82.6202 608.552 81.9622C608.657 81.5985 608.704 81.2096 608.783 80.8394C608.899 80.2942 609.014 79.7475 609.093 79.1953C609.228 78.2471 609.331 77.2044 609.227 76.2468Z" fill="#FFD3D1"/>
<path fill-rule="evenodd" clip-rule="evenodd" d="M622.167 86.6134C621.965 86.5965 621.834 86.7205 621.674 86.8244C621.519 86.926 621.354 87.014 621.182 87.0837C620.825 87.2279 620.442 87.3126 620.058 87.3304C619.675 87.3481 619.295 87.3018 618.929 87.189C618.75 87.1338 618.58 87.058 618.42 86.9583C618.382 86.9349 618.348 86.9054 618.305 86.889C618.291 86.8834 618.235 86.8628 618.223 86.86C618.135 86.8174 618.05 86.7453 617.977 86.6831C617.855 86.5806 617.649 86.7112 617.744 86.8647C617.802 86.9569 617.863 87.0533 617.937 87.1338C617.994 87.197 618.028 87.2737 618.133 87.3528C618.305 87.4825 618.491 87.5845 618.689 87.6683C619.111 87.847 619.574 87.9079 620.03 87.8901C620.491 87.8714 620.951 87.7773 621.379 87.6013C621.712 87.4642 622.337 87.2222 622.34 86.7893C622.341 86.6882 622.26 86.6213 622.167 86.6134Z" fill="#FF6969"/>
<path fill-rule="evenodd" clip-rule="evenodd" d="M621.857 82.2508C621.779 81.882 621.531 81.6592 621.289 81.3953C621.208 81.3068 621.197 81.151 621.181 81.0007C621.15 80.7251 621.139 80.4536 621.087 80.1808C621.068 80.0769 620.901 80.0773 620.88 80.1808C620.834 80.4195 620.799 80.6525 620.783 80.8954C620.772 81.0761 620.766 81.268 620.825 81.4421C620.919 81.7233 621.193 81.874 621.324 82.1324C621.378 82.2391 621.407 82.3495 621.409 82.4558C621.411 82.5648 621.398 82.6397 621.348 82.7122C621.339 82.723 621.33 82.7328 621.319 82.7427C621.312 82.7488 621.312 82.7488 621.309 82.7511C621.306 82.7534 621.306 82.753 621.298 82.7581C621.29 82.7633 621.281 82.7675 621.273 82.7717C621.27 82.7717 621.265 82.7736 621.252 82.7782C621.244 82.7806 621.214 82.7839 621.208 82.7848C621.146 82.7876 621.14 82.7862 621.064 82.7628C620.952 82.7286 620.869 82.7352 620.757 82.7689C620.619 82.8105 620.557 82.9678 620.626 83.0955C620.692 83.2186 620.771 83.2959 620.912 83.3221C621.006 83.3399 621.101 83.3501 621.197 83.3403C621.364 83.3225 621.525 83.2617 621.646 83.1395C621.876 82.9097 621.923 82.5587 621.857 82.2508Z" fill="#FF9BA1"/>
<path fill-rule="evenodd" clip-rule="evenodd" d="M625.156 75.6532C625.022 75.4552 624.632 75.509 624.502 75.6827C624.481 75.7098 624.459 75.7365 624.439 75.7632C624.384 75.8399 624.38 75.897 624.37 75.9803C624.362 76.0398 624.356 76.0992 624.349 76.1582C624.333 76.2925 624.327 76.4249 624.324 76.5597C624.321 76.6894 624.319 76.8185 624.32 76.9482C624.32 77.0128 624.321 77.0778 624.323 77.1429C624.326 77.2346 624.351 77.3231 624.372 77.4134C624.405 77.5543 624.644 77.661 624.825 77.6465C625.009 77.6319 625.234 77.5262 625.257 77.3727C625.298 77.0872 625.284 76.8017 625.294 76.5157C625.299 76.3861 625.303 76.2588 625.298 76.1301C625.296 76.0664 625.297 76.0019 625.291 75.9382C625.28 75.8273 625.221 75.7477 625.156 75.6532Z" fill="#00143B"/>
<path fill-rule="evenodd" clip-rule="evenodd" d="M627.125 72.4341C626.992 72.3223 626.865 72.202 626.723 72.1023C626.337 71.8318 625.817 71.7606 625.359 71.7401C624.433 71.6984 623.601 72.2357 623.138 73.0313C623.04 73.2007 623.304 73.3589 623.422 73.2105C623.915 72.5872 624.718 72.2493 625.5 72.3269C625.857 72.362 626.219 72.4271 626.502 72.6592C626.693 72.8155 627.046 73.2442 627.322 73.109C627.461 73.0407 627.511 72.9138 627.473 72.7631C627.436 72.6185 627.235 72.5263 627.125 72.4341Z" fill="#FF9043"/>
<path fill-rule="evenodd" clip-rule="evenodd" d="M614.792 75.6532C614.927 75.4552 615.317 75.509 615.447 75.6827C615.467 75.7098 615.49 75.7365 615.51 75.7632C615.564 75.8399 615.569 75.897 615.579 75.9803C615.586 76.0398 615.593 76.0992 615.6 76.1582C615.616 76.2925 615.622 76.4249 615.625 76.5597C615.628 76.6894 615.63 76.8185 615.629 76.9482C615.629 77.0128 615.628 77.0778 615.626 77.1429C615.623 77.2346 615.598 77.3231 615.577 77.4134C615.544 77.5543 615.305 77.661 615.123 77.6465C614.94 77.6319 614.714 77.5262 614.693 77.3727C614.652 77.0872 614.665 76.8017 614.655 76.5157C614.65 76.3861 614.646 76.2588 614.651 76.1301C614.653 76.0664 614.652 76.0019 614.659 75.9382C614.669 75.8273 614.728 75.7477 614.792 75.6532Z" fill="#00143B"/>
<path fill-rule="evenodd" clip-rule="evenodd" d="M612.823 72.4341C612.956 72.3223 613.084 72.202 613.226 72.1023C613.611 71.8318 614.132 71.7606 614.589 71.7401C615.515 71.6984 616.347 72.2357 616.811 73.0313C616.909 73.2007 616.644 73.3589 616.527 73.2105C616.034 72.5872 615.23 72.2493 614.448 72.3269C614.092 72.362 613.73 72.4271 613.446 72.6592C613.256 72.8155 612.903 73.2442 612.627 73.109C612.487 73.0407 612.438 72.9138 612.476 72.7631C612.513 72.6185 612.714 72.5263 612.823 72.4341Z" fill="#FF9043"/>
<path fill-rule="evenodd" clip-rule="evenodd" d="M628.604 81.6261C628.604 81.9917 627.916 82.2879 627.067 82.2879C626.218 82.2879 625.53 81.9917 625.53 81.6261C625.53 81.2611 626.218 80.9648 627.067 80.9648C627.916 80.9648 628.604 81.2611 628.604 81.6261Z" fill="#FFBCC1"/>
<path fill-rule="evenodd" clip-rule="evenodd" d="M615.214 81.6261C615.214 81.9917 614.525 82.2879 613.677 82.2879C612.828 82.2879 612.14 81.9917 612.14 81.6261C612.14 81.2611 612.828 80.9648 613.677 80.9648C614.525 80.9648 615.214 81.2611 615.214 81.6261Z" fill="#FFBCC1"/>
<path fill-rule="evenodd" clip-rule="evenodd" d="M630.458 83.4136L629.891 83.1988C629.906 83.1576 631.45 79.026 631.921 76.1309L632.519 76.2287C632.038 79.1842 630.522 83.2423 630.458 83.4136Z" fill="white"/>
<path fill-rule="evenodd" clip-rule="evenodd" d="M630.655 82.1581C630.655 82.1581 630.626 82.3823 630.566 82.7431C630.45 83.506 630.203 84.8814 629.816 85.963C628.613 89.3463 623.802 94.4808 621.574 94.9016C619.271 95.3368 616.884 94.4808 614.055 92.4258C613.626 92.1127 613.206 91.7659 612.81 91.3962C610.586 89.3697 608.941 86.8097 608.941 86.8097C608.941 86.8097 609.305 82.3406 610.027 81.7369C610.75 81.1331 623.802 77.8711 630.655 82.1581Z" fill="white"/>
<path fill-rule="evenodd" clip-rule="evenodd" d="M630.565 82.7431C630.449 83.506 630.202 84.8814 629.815 85.963C628.613 89.3463 623.801 94.4808 621.573 94.9016C619.271 95.3368 616.883 94.4808 614.054 92.4258C613.625 92.1127 613.205 91.7659 612.809 91.3962L611.648 89.5241C611.648 89.5241 612.846 90.5725 613.677 90.6665C613.677 90.6665 617.009 91.0639 617.849 90.886C618.688 90.704 619.615 88.4856 619.615 88.4856C619.615 88.4856 623.624 87.3011 624.808 87.3011C625.992 87.3011 627.437 85.3172 627.414 84.0489C627.391 82.7805 627.414 80.9829 627.414 80.9829C627.414 80.9829 629.325 81.5866 630.565 82.7431Z" fill="#F0F0F0"/>
<path fill-rule="evenodd" clip-rule="evenodd" d="M609.988 82.1591C609.963 82.102 607.522 76.4344 606.588 75.0865L607.085 74.7393C608.054 76.1367 610.443 81.6822 610.544 81.9176L609.988 82.1591Z" fill="white"/>
<path fill-rule="evenodd" clip-rule="evenodd" d="M608.943 86.8091C608.92 86.7698 606.691 82.824 605.671 79.8118L606.245 79.6162C607.246 82.574 609.447 86.4688 609.469 86.5081L608.943 86.8091Z" fill="white"/>
<path fill-rule="evenodd" clip-rule="evenodd" d="M634.266 68.9929C633.903 73.4624 631.302 80.9642 631.302 80.9642C631.647 79.2278 631.698 76.635 631.129 74.478C630.854 73.4203 630.43 72.4702 629.815 71.7724C629.334 71.2295 628.514 70.7713 627.484 70.3918V70.3871C624.491 69.2877 619.727 68.8759 616.459 69.2363C612.068 69.7183 609.783 71.5904 608.52 74.609C607.485 77.0797 607.672 82.2512 607.77 84.0488C607.798 84.4419 607.812 84.6848 607.812 84.6848C607.812 84.6848 605.211 82.8835 603.588 79.8643C602.949 78.6756 602.553 76.7244 602.348 74.6184C602.031 71.361 602.176 67.7428 602.591 66.0491C602.595 66.0393 602.6 66.0351 602.6 66.0252C602.996 63.4938 603.956 61.1584 605.392 59.1506C608.161 55.2848 615.256 51.2408 624.099 53.9552C625.339 54.339 626.444 54.8215 627.414 55.3831C629.409 56.5293 630.868 58.004 631.922 59.6041C634.01 62.7777 634.471 66.4371 634.266 68.9929Z" fill="#00CCB2"/>
<path fill-rule="evenodd" clip-rule="evenodd" d="M634.268 68.9933C633.904 73.4628 631.303 80.9645 631.303 80.9645C631.648 79.2282 631.699 76.6354 631.13 74.4784C631.349 74.3281 631.555 74.1086 631.718 73.7852C632.403 72.4519 632.538 70.4581 632.58 69.283C632.626 68.104 633.168 68.1836 633.303 66.7604C633.405 65.6657 632.92 62.0616 631.923 59.6045C634.011 62.7781 634.472 66.4375 634.268 68.9933Z" fill="#00A48F"/>
<path fill-rule="evenodd" clip-rule="evenodd" d="M627.485 70.3874C624.492 69.2876 619.728 68.8762 616.46 69.2361C612.069 69.7182 609.784 71.5902 608.521 74.6094C607.487 77.08 607.673 82.2515 607.771 84.0487C607.678 82.6493 607.43 79.3452 607.183 78.4513C606.867 77.3004 607.365 74.403 608.177 73.2704C608.987 72.1331 609.528 70.5933 610.544 69.6433C611.561 68.6932 612.055 68.6932 614.652 68.375C617.243 68.0572 618.535 67.6215 619.984 67.9304C621.438 68.2393 622.52 68.4218 623.83 68.6932C625.14 68.9647 627.485 70.3874 627.485 70.3874Z" fill="#00DABE"/>
<path fill-rule="evenodd" clip-rule="evenodd" d="M624.099 53.9552C615.256 51.2408 608.162 55.2848 605.392 59.1506C603.956 61.1584 602.996 63.4938 602.6 66.0252C602.6 66.0351 602.595 66.0393 602.59 66.0491C602.176 67.7428 602.031 71.3606 602.349 74.6179C602.628 72.2502 603.15 67.7901 603.346 66.3439C603.556 64.7916 604.435 62.6443 605.74 60.7217C605.461 61.8403 605.67 62.6424 605.67 62.6424C605.852 64.1888 607.273 63.0763 607.994 61.9891C608.716 60.9024 610.25 59.7698 611.648 58.2885C612.941 56.9196 612.845 55.4037 612.285 55.0017C613.266 54.5898 614.368 54.2917 615.629 54.1658C619.857 53.7451 621.4 54.5777 623.559 54.559C624.473 54.5543 625.978 54.9385 627.414 55.3831C626.444 54.8215 625.339 54.339 624.099 53.9552Z" fill="#00DABE"/>
<path fill-rule="evenodd" clip-rule="evenodd" d="M628.459 97.6685C627.914 101.062 626.599 107.506 624.012 111.18C624.012 111.18 612.759 103.561 608.843 96.1147C612.866 94.823 612.927 93.8354 612.927 93.8354C613.677 94.4017 614.4 94.8651 615.099 95.2442C619.043 97.3877 622.143 96.8167 623.952 96.0538C625.093 95.5718 625.718 95.0148 625.718 95.0148C626.021 96.1615 628.147 97.4766 628.427 97.6497C628.45 97.6638 628.459 97.6685 628.459 97.6685Z" fill="white"/>
<path fill-rule="evenodd" clip-rule="evenodd" d="M646.244 148.34L646.237 148.353C646.094 148.77 645.884 149.253 645.585 149.802V149.809C644.997 150.873 644.077 152.163 642.628 153.579C642.412 153.784 642.184 153.989 641.956 154.194C637.661 158.03 627.929 161.741 624.268 161.999C622.675 162.111 616.945 160.901 610.848 159.412C610.803 159.406 610.783 159.399 610.783 159.399C602.86 157.468 594.355 155.094 593.572 154.577C590.158 152.329 588.52 148.817 588.141 146.865C588.07 146.515 588.024 146.059 587.998 145.549C587.861 143.214 588.083 139.722 588.083 139.722L600.895 141.514L600.562 144.226L600.393 145.635C600.393 145.635 606.077 148.433 610.627 151.125C615.169 153.817 623.635 155.596 623.635 155.596L623.642 155.589C626.298 152.527 630.833 151.627 631.382 151.125C631.93 150.616 636.14 146.382 636.897 146.257C637.661 146.125 637.406 147.659 636.649 149.584C635.925 151.422 633.751 152.911 633.575 153.03C633.803 152.971 637.498 151.905 639.737 150.616C639.737 150.616 639.743 150.616 639.756 150.609C640.402 150.232 640.924 149.842 641.199 149.452C642.458 147.659 643.848 144.848 644.605 144.848C644.697 144.848 644.775 144.875 644.854 144.927C645.415 145.298 645.611 146.865 645.611 146.865C645.611 146.865 646.374 146.508 646.498 146.865C646.544 146.998 646.524 147.527 646.244 148.34Z" fill="#58BAD3"/>
<path fill-rule="evenodd" clip-rule="evenodd" d="M644.853 144.927C644.246 145.37 643.156 146.846 642.301 148.34C641.354 149.987 639.925 150.549 639.755 150.609C640.401 150.232 640.924 149.841 641.198 149.451C642.457 147.659 643.848 144.848 644.605 144.848C644.696 144.848 644.775 144.874 644.853 144.927Z" fill="#85E4E0"/>
<path fill-rule="evenodd" clip-rule="evenodd" d="M636.897 146.257C636.897 146.257 634.868 147.805 634.058 149.604C633.249 151.403 630.775 152.078 628.726 152.911C626.742 153.718 623.824 155.484 623.641 155.589C626.298 152.527 630.834 151.628 631.382 151.125C631.93 150.616 636.14 146.383 636.897 146.257Z" fill="#85E4E0"/>
<path fill-rule="evenodd" clip-rule="evenodd" d="M646.237 148.354C646.093 148.771 645.884 149.253 645.584 149.802V149.809C644.996 150.874 644.076 152.164 642.627 153.579C642.412 153.784 642.184 153.989 641.955 154.194C637.66 158.031 627.929 161.741 624.267 161.999C622.675 162.111 616.944 160.901 610.848 159.413C611.774 159.558 622.427 161.218 624.607 160.974C626.878 160.723 637.386 156.697 640.121 154.915C644.732 151.91 646.034 148.645 646.237 148.354Z" fill="#0099B8"/>
<path fill-rule="evenodd" clip-rule="evenodd" d="M622.66 160.938C622.604 161.289 622.544 161.607 622.483 161.874C622.339 162.515 622.208 162.899 622.208 162.899C622.208 162.899 621.574 162.717 619.77 162.445C617.967 162.174 595.05 156.918 592.612 155.289C592.607 155.289 592.607 155.285 592.603 155.285C590.174 153.651 587.871 149.837 587.47 147.557C587.414 147.235 587.353 146.57 587.307 145.63C587.027 139.896 587.185 123.811 590.915 110.964C593.232 102.984 596.686 101.121 596.886 101.009L596.896 101C597.059 101.056 597.208 101.112 597.357 101.182C597.394 101.192 597.437 101.205 597.474 101.224C604.886 104.397 604.746 118.438 603.422 129.296C603.161 131.43 602.853 133.443 602.55 135.221C602.513 135.445 602.471 135.666 602.429 135.89C601.87 139.101 601.333 141.464 601.138 142.283C601.11 142.39 601.086 142.499 601.063 142.601C600.709 144.244 600.462 145.325 600.462 145.325C600.462 145.325 605.333 147.408 610.848 150.791C616.363 154.171 622.339 155.181 622.339 155.181C622.353 155.224 622.367 155.271 622.376 155.312C622.399 155.378 622.418 155.444 622.437 155.509C623.005 157.512 622.884 159.52 622.66 160.938Z" fill="#FCB0BA"/>
<path fill-rule="evenodd" clip-rule="evenodd" d="M605.03 157.161C607.318 157.966 617.192 160.227 618.167 160.451C617.085 160.283 605.38 158.411 598.34 156.679C596.252 156.169 594.327 155.729 592.602 155.284C590.174 153.651 587.87 149.837 587.469 147.557C587.414 147.235 587.353 146.57 587.306 145.629C587.88 146.341 590.984 150.211 592.401 151.793C593.968 153.539 602.625 156.314 605.03 157.161Z" fill="#DB909A"/>
<path fill-rule="evenodd" clip-rule="evenodd" d="M521.102 166.036L520.482 173.473L519.672 183.147L518.935 191.941C518.888 191.949 518.837 191.954 518.781 191.959C518.394 192.001 517.326 192.104 516.32 192.029C515.369 191.963 513.802 190.812 512.586 189.553C512.576 189.544 512.563 189.53 512.548 189.516C512.492 189.465 512.441 189.404 512.385 189.338C512.063 188.997 511.774 188.65 511.537 188.318C510.362 186.684 509.281 182.973 509.192 180.619C509.127 178.995 509.267 172.859 509.355 169.19V169.157C509.398 167.51 509.43 166.368 509.43 166.368L521.102 166.036Z" fill="#58BAD3"/>
<path fill-rule="evenodd" clip-rule="evenodd" d="M519.673 183.146L518.936 191.94C518.889 191.95 518.838 191.954 518.783 191.959C517.58 192.062 514.629 191.06 513.822 189.675C512.983 188.228 513.282 184.058 513.524 182.248C513.761 180.436 514.666 177.656 514.908 176.753C515.109 175.985 515.314 174.535 515.37 174.1C515.3 174.871 515.146 178.793 515.146 180.015C515.146 181.344 515.808 182.851 516.111 183.216C516.41 183.577 517.734 183.516 518.153 183.516C518.446 183.516 519.216 183.287 519.673 183.146Z" fill="#0099B8"/>
<path fill-rule="evenodd" clip-rule="evenodd" d="M512.385 189.338C512.064 188.997 511.774 188.65 511.537 188.318C510.362 186.685 509.281 182.973 509.192 180.619C509.127 178.995 509.267 172.86 509.355 169.19C509.379 169.766 509.686 177.348 509.686 178.26C509.686 179.215 510.32 183.741 510.544 184.696C510.759 185.585 511.579 188.323 512.385 189.338Z" fill="#85E4E0"/>
<path fill-rule="evenodd" clip-rule="evenodd" d="M521.102 166.036L520.482 173.473C520.054 171.806 519.541 169.63 519.206 169.19C518.665 168.479 509.43 166.368 509.43 166.368L521.102 166.036Z" fill="#0099B8"/>
<path fill-rule="evenodd" clip-rule="evenodd" d="M521.103 166.729L513.658 166.499L509.43 166.368L509.192 163.949L515.956 164.051L520.921 164.131L521.103 166.729Z" fill="#00CCB2"/>
<path fill-rule="evenodd" clip-rule="evenodd" d="M521.103 166.729L513.659 166.499L515.957 164.051L520.921 164.131L521.103 166.729Z" fill="#00A48F"/>
<path fill-rule="evenodd" clip-rule="evenodd" d="M523.807 113.225C523.528 117.409 523.197 122.843 522.861 128.599C522.847 128.913 522.828 129.222 522.81 129.535C521.873 145.762 520.922 164.131 520.922 164.131L515.957 164.051L509.193 163.948C509.193 163.948 507.025 159.423 507.025 155.796C507.025 152.225 507.902 136.163 507.93 129.278V128.983C507.93 128.782 507.934 128.567 507.939 128.342C508.154 121.055 511.79 101.357 514.065 92.572C516.41 83.5113 523.448 75.1807 523.448 75.1807C523.448 75.1807 523.659 78.3959 523.863 83.2632C524.185 91.1164 524.479 103.275 523.807 113.225Z" fill="white"/>
<path fill-rule="evenodd" clip-rule="evenodd" d="M523.806 113.226C522.725 129.349 520.921 164.132 520.921 164.132L515.956 164.052L518.394 160.869C518.394 160.869 518.575 141.849 518.575 137.319C518.575 132.789 519.475 119.745 520.561 106.702C521.358 97.1074 523.027 87.6162 523.862 83.2637C524.184 91.1169 524.477 103.276 523.806 113.226Z" fill="#D0D0D0"/>
<path fill-rule="evenodd" clip-rule="evenodd" d="M522.86 128.599C522.846 128.913 522.828 129.222 522.809 129.535C516.208 129.371 509.999 129.301 507.929 129.278V128.983C507.929 128.782 507.933 128.567 507.938 128.342C510.018 128.365 516.25 128.435 522.86 128.599Z" fill="#B4B4B4"/>
<path fill-rule="evenodd" clip-rule="evenodd" d="M586.11 181.392C586.026 183.643 584.991 187.195 583.863 188.758C583.639 189.077 583.36 189.404 583.052 189.732C583.001 189.798 582.949 189.854 582.898 189.905C582.884 189.919 582.87 189.928 582.861 189.938C581.696 191.145 580.199 192.245 579.29 192.311C578.325 192.381 577.304 192.283 576.936 192.241C576.88 192.236 576.833 192.231 576.787 192.222L576.083 183.807L575.813 180.587L574.712 167.436L585.882 167.754C585.882 167.754 585.914 168.844 585.952 170.422V170.455C586.035 173.965 586.171 179.838 586.11 181.392Z" fill="#58BAD3"/>
<path fill-rule="evenodd" clip-rule="evenodd" d="M576.081 183.808L576.785 192.223C576.83 192.232 576.879 192.237 576.933 192.241C578.084 192.34 580.907 191.381 581.679 190.056C582.481 188.672 582.196 184.681 581.964 182.948C581.737 181.215 580.871 178.555 580.639 177.691C580.448 176.957 580.251 175.568 580.198 175.152C580.265 175.891 580.412 179.644 580.412 180.812C580.412 182.084 579.779 183.526 579.489 183.876C579.203 184.221 577.936 184.162 577.535 184.162C577.254 184.162 576.518 183.943 576.081 183.808Z" fill="#0099B8"/>
<path fill-rule="evenodd" clip-rule="evenodd" d="M583.052 189.733C583.36 189.406 583.637 189.074 583.864 188.757C584.988 187.193 586.023 183.642 586.108 181.39C586.17 179.836 586.036 173.965 585.952 170.454C585.929 171.004 585.635 178.259 585.635 179.133C585.635 180.046 585.028 184.377 584.814 185.291C584.609 186.141 583.824 188.761 583.052 189.733Z" fill="#85E4E0"/>
<path fill-rule="evenodd" clip-rule="evenodd" d="M581.918 168.723C580.235 169.022 575.839 170.169 575.839 170.169C575.839 170.169 576.138 172.645 576.081 174.156C576.021 175.668 575.839 180.619 575.839 180.619L575.811 180.587L574.711 167.436L585.88 167.754C585.88 167.754 583.596 168.418 581.918 168.723Z" fill="#0099B8"/>
<path fill-rule="evenodd" clip-rule="evenodd" d="M586.244 165.217L585.88 167.754C585.88 167.754 584.585 167.805 582.85 167.852C579.62 167.941 574.86 168.011 574.152 167.693V165.039L580.562 165.133L586.244 165.217Z" fill="#00CCB2"/>
<path fill-rule="evenodd" clip-rule="evenodd" d="M582.85 167.852C579.62 167.941 574.86 168.011 574.152 167.693V165.039L580.562 165.133L582.85 167.852Z" fill="#00A48F"/>
<path fill-rule="evenodd" clip-rule="evenodd" d="M586.244 165.217C586.244 165.217 584.081 165.418 581.018 165.413C579 165.413 576.585 165.329 574.151 165.039C574.151 165.039 572.529 125.726 573.974 107.066C574.529 99.8781 574.897 93.4986 575.14 88.3692C575.527 80.179 575.597 75.1807 575.597 75.1807C575.597 75.1807 579.386 77.1697 583.176 82.4259C586.966 87.6812 590.034 109.781 590.393 127.355C590.402 127.78 590.407 128.206 590.416 128.623C590.421 128.936 590.425 129.25 590.43 129.559C590.658 145.864 589.526 156.372 586.244 165.217Z" fill="white"/>
<path fill-rule="evenodd" clip-rule="evenodd" d="M577.219 147.648C577.219 147.648 577.501 139.571 577.758 130.151L587.145 128.805L577.785 129.135C577.928 123.78 578.059 118.076 578.123 113.226C578.305 99.457 575.732 86.3672 575.732 86.3672L575.14 88.3698C574.898 93.4992 574.529 99.8787 573.974 107.067C572.529 125.726 574.151 165.039 574.151 165.039C576.585 165.33 579 165.414 581.018 165.414L577.582 162.681L577.219 147.648Z" fill="#D0D0D0"/>
<path fill-rule="evenodd" clip-rule="evenodd" d="M590.431 129.559C581.998 129.344 573.877 129.274 573.789 129.274L573.798 128.338C573.887 128.338 581.993 128.408 590.417 128.623C590.421 128.937 590.426 129.251 590.431 129.559Z" fill="#B4B4B4"/>
<path fill-rule="evenodd" clip-rule="evenodd" d="M528.199 71.9189L523.448 75.18C523.448 75.18 522.184 109.964 521.823 118.116C521.462 126.269 522.184 148.733 522.184 148.733L518.395 195.292L576.68 196.198C576.68 196.198 574.154 147.646 574.154 146.921C574.154 146.197 576.499 104.71 576.68 97.463C576.861 90.2168 575.598 75.18 575.598 75.18L568.861 73.2476L528.199 71.9189Z" fill="white"/>
<path fill-rule="evenodd" clip-rule="evenodd" d="M566.394 117.032H556.827V107.427H542.398V117.032H532.831V131.519H542.398V141.124H556.827V131.519H566.394V117.032Z" fill="#F0F0F0"/>
<path fill-rule="evenodd" clip-rule="evenodd" d="M549.829 77.1595C549.7 77.2274 549.562 77.2592 549.42 77.2742C549.594 82.3774 550.257 102.598 550.101 109.958C550.034 113.107 549.847 120.17 549.631 128.35C549.259 142.402 548.838 158.329 548.838 161.414C548.838 166.249 548.659 197.512 548.657 197.827L549.123 197.83C549.125 197.515 549.304 166.251 549.304 161.414C549.304 158.335 549.725 142.412 550.097 128.362C550.313 120.182 550.5 113.118 550.567 109.969C550.725 102.533 550.049 82.0231 549.881 77.1343C549.863 77.1413 549.848 77.153 549.829 77.1595Z" fill="#D0D0D0"/>
<path fill-rule="evenodd" clip-rule="evenodd" d="M568.862 73.2482C568.862 73.2482 568.852 73.2528 568.838 73.2575C568.582 73.3745 566.382 74.3386 562.899 75.2793C561.282 75.7146 559.389 76.1498 557.287 76.4915C557.268 76.4962 557.249 76.4962 557.231 76.5009C549.357 77.7692 538.542 77.7504 528.199 71.919C528.199 71.919 530.604 55.6135 530.604 47.2782C530.604 38.9476 532.529 31.2161 536.622 27.2333C540.71 23.2459 546.724 22.1601 551.777 23.1242C554.028 23.5547 556.807 24.8277 559.31 26.6155C560.662 27.575 561.93 28.6888 562.997 29.9057C564.396 31.4969 565.44 33.2566 565.855 35.0819C566.563 38.1801 566.862 43.9975 567.034 49.5387C567.062 50.442 567.09 51.3406 567.113 52.2204C567.118 52.4732 567.127 52.7259 567.132 52.9739C567.225 56.4747 567.291 59.5776 567.416 61.4122C567.78 66.6024 568.26 71.3153 568.862 73.2482Z" fill="white"/>
<path fill-rule="evenodd" clip-rule="evenodd" d="M567.033 49.5398L567.035 49.5388C566.862 43.9976 566.564 38.1807 565.855 35.082C565.44 33.2567 564.396 31.497 562.998 29.9058C563.506 30.8558 564.046 31.8854 564.499 32.7887C565.761 35.3253 566.303 46.2815 566.303 46.2815C566.303 46.2815 560.89 47.1899 560.532 47.2783L560.209 49.3727C560.023 49.3909 559.833 49.4097 559.655 49.4265L559.478 49.698L560.201 58.0286C560.923 57.6682 562.844 54.8882 564.289 53.9241C565.086 53.391 566.251 53.1144 567.132 52.974C567.102 51.862 567.07 50.7061 567.033 49.5398Z" fill="#D0D0D0"/>
<path fill-rule="evenodd" clip-rule="evenodd" d="M568.861 73.2484C568.861 73.2484 568.852 73.2531 568.838 73.2577C568.53 73.3607 565.109 74.5167 562.899 75.2795C562.386 75.4527 561.939 75.6071 561.612 75.7242C560.932 75.9628 559.216 76.253 557.286 76.4917C557.268 76.4964 557.249 76.4964 557.23 76.501C554.065 76.8942 550.336 77.1469 549.613 76.8099C549.613 76.8099 557.37 74.8162 559.174 73.8193C560.978 72.8225 565.854 66.846 565.943 63.3125C566.032 59.779 566.032 56.7931 566.032 56.7931L565.761 52.1738L567.113 52.2206C567.118 52.4734 567.127 52.7261 567.132 52.9741C567.225 56.4749 567.29 59.5778 567.416 61.4124C567.78 66.6026 568.26 71.3155 568.861 73.2484Z" fill="#D0D0D0"/>
<mask id="mask0" mask-type="alpha" maskUnits="userSpaceOnUse" x="537" y="37" width="25" height="31">
<path fill-rule="evenodd" clip-rule="evenodd" d="M546.058 38.176C542.142 38.7678 539.056 40.5423 538.226 43.5C537.396 46.4572 537.247 64.4677 537.247 64.8229C537.247 65.533 541.534 67.4437 548.906 67.3071C556.15 67.1741 560.921 65.1778 560.921 65.1778C560.921 65.1778 562.315 43.1447 560.417 40.4236C559.084 38.5138 554.478 37.8867 550.496 37.8867C548.805 37.8867 547.225 37.9999 546.058 38.176Z" fill="white"/>
</mask>
<g mask="url(#mask0)">
<path fill-rule="evenodd" clip-rule="evenodd" d="M561.761 45.7132C561.447 43.2676 560.711 40.8155 558.772 39.1753C556.329 37.1084 552.843 36.6403 549.769 36.4313C546.474 36.2067 542.715 35.8381 540.075 38.2397C538.786 39.4137 537.672 40.9815 536.647 42.3888C535.564 43.8782 534.59 45.561 534.539 47.4529C534.536 47.5698 534.579 47.6582 534.642 47.7224C534.522 49.6344 534.617 51.5442 534.688 53.458C534.758 55.3444 534.814 57.1524 535.295 58.9924C535.694 60.5167 536.264 62.0216 537.162 63.3217C538.106 64.6873 539.323 65.8301 540.597 66.8776C541.924 67.9686 543.31 69.0211 544.711 70.0135C545.85 70.8208 547.13 71.5034 548.567 71.3787C550.285 71.2302 551.993 70.0653 553.413 69.1604C554.97 68.1675 556.459 67.0435 557.802 65.7705C560.295 63.4083 561.315 60.2687 561.832 56.9383C562.4 53.2738 562.231 49.3841 561.761 45.7132Z" fill="#FFC6AD"/>
</g>
<mask id="mask1" mask-type="alpha" maskUnits="userSpaceOnUse" x="537" y="37" width="25" height="31">
<path fill-rule="evenodd" clip-rule="evenodd" d="M546.058 38.176C542.142 38.7678 539.056 40.5423 538.226 43.5C537.396 46.4572 537.247 64.4677 537.247 64.8229C537.247 65.533 541.534 67.4437 548.906 67.3071C556.15 67.1741 560.921 65.1778 560.921 65.1778C560.921 65.1778 562.315 43.1447 560.417 40.4236C559.084 38.5138 554.478 37.8867 550.496 37.8867C548.805 37.8867 547.225 37.9999 546.058 38.176Z" fill="white"/>
</mask>
<g mask="url(#mask1)">
<path fill-rule="evenodd" clip-rule="evenodd" d="M548.978 56.1389C548.914 55.7685 548.972 55.3775 548.96 55.0053C548.948 54.6055 548.796 54.1586 548.928 53.768C548.979 53.6218 548.755 53.5649 548.7 53.7048C548.542 54.1146 548.678 54.5808 548.669 55.0053C548.659 55.4802 548.542 55.9647 548.683 56.4314C548.715 56.5368 548.84 56.5955 548.938 56.5354C549.436 56.232 550.49 56.6143 550.402 57.2987C550.364 57.6013 550.095 57.8401 549.86 58.0037C549.734 58.0927 549.598 58.1701 549.46 58.238C549.335 58.299 549.189 58.332 549.096 58.4406C549.017 58.5323 549.032 58.7134 549.174 58.7386C549.536 58.8032 550.015 58.4214 550.272 58.1999C550.579 57.9373 550.837 57.5627 550.788 57.1406C550.7 56.353 549.692 55.8859 548.978 56.1389Z" fill="#C17E67"/>
</g>
<mask id="mask2" mask-type="alpha" maskUnits="userSpaceOnUse" x="537" y="37" width="25" height="31">
<path fill-rule="evenodd" clip-rule="evenodd" d="M546.058 38.176C542.142 38.7678 539.056 40.5423 538.226 43.5C537.396 46.4572 537.247 64.4677 537.247 64.8229C537.247 65.533 541.534 67.4437 548.906 67.3071C556.15 67.1741 560.921 65.1778 560.921 65.1778C560.921 65.1778 562.315 43.1447 560.417 40.4236C559.084 38.5138 554.478 37.8867 550.496 37.8867C548.805 37.8867 547.225 37.9999 546.058 38.176Z" fill="white"/>
</mask>
<g mask="url(#mask2)">
<path fill-rule="evenodd" clip-rule="evenodd" d="M552.417 62.8946C552.111 63.0092 551.843 63.1967 551.535 63.3103C551.212 63.43 550.871 63.518 550.534 63.59C549.831 63.7399 549.112 63.7353 548.399 63.6849C547.812 63.6431 547.222 63.5932 546.643 63.4859C546.05 63.3764 545.401 63.2439 544.927 62.8473C544.792 62.735 544.597 62.9239 544.731 63.0435C545.684 63.8916 547.05 63.9911 548.259 64.1093C549.038 64.1854 549.823 64.2166 550.6 64.0938C551.249 63.9911 552.18 63.7908 552.633 63.2668C552.764 63.1146 552.642 62.8098 552.417 62.8946Z" fill="#FF6969"/>
</g>
<mask id="mask3" mask-type="alpha" maskUnits="userSpaceOnUse" x="537" y="37" width="25" height="31">
<path fill-rule="evenodd" clip-rule="evenodd" d="M546.058 38.176C542.142 38.7678 539.056 40.5423 538.226 43.5C537.396 46.4572 537.247 64.4677 537.247 64.8229C537.247 65.533 541.534 67.4437 548.906 67.3071C556.15 67.1741 560.921 65.1778 560.921 65.1778C560.921 65.1778 562.315 43.1447 560.417 40.4236C559.084 38.5138 554.478 37.8867 550.496 37.8867C548.805 37.8867 547.225 37.9999 546.058 38.176Z" fill="white"/>
</mask>
<g mask="url(#mask3)">
<path fill-rule="evenodd" clip-rule="evenodd" d="M554.745 50.8151C554.743 50.5763 554.705 50.2188 554.388 50.2188C554.073 50.2188 554.031 50.5763 554.04 50.8151C554.046 50.9939 554.054 51.1727 554.063 51.3519C554.072 51.5486 554.087 51.7393 554.119 51.9337C554.149 52.1221 554.151 52.3472 554.303 52.4792C554.379 52.5456 554.477 52.5461 554.553 52.4792C554.71 52.3421 554.706 52.1019 554.729 51.9075C554.751 51.72 554.755 51.5408 554.751 51.3519C554.749 51.1727 554.745 50.9939 554.745 50.8151Z" fill="#00143B"/>
</g>
<mask id="mask4" mask-type="alpha" maskUnits="userSpaceOnUse" x="537" y="37" width="25" height="31">
<path fill-rule="evenodd" clip-rule="evenodd" d="M546.058 38.176C542.142 38.7678 539.056 40.5423 538.226 43.5C537.396 46.4572 537.247 64.4677 537.247 64.8229C537.247 65.533 541.534 67.4437 548.906 67.3071C556.15 67.1741 560.921 65.1778 560.921 65.1778C560.921 65.1778 562.315 43.1447 560.417 40.4236C559.084 38.5138 554.478 37.8867 550.496 37.8867C548.805 37.8867 547.225 37.9999 546.058 38.176Z" fill="white"/>
</mask>
<g mask="url(#mask4)">
<path fill-rule="evenodd" clip-rule="evenodd" d="M556.435 47.6747C556.136 47.5124 555.76 47.4927 555.425 47.4611C555.05 47.4258 554.672 47.4189 554.297 47.445C553.59 47.4941 552.838 47.6513 552.265 48.0927C552.088 48.2284 552.237 48.5154 552.443 48.4008C553.028 48.0762 553.694 47.9369 554.356 47.897C554.693 47.8768 555.031 47.8833 555.367 47.9121C555.69 47.9392 556.019 48.0377 556.34 48.0258C556.518 48.0194 556.605 47.7673 556.435 47.6747Z" fill="#00143B"/>
</g>
<mask id="mask5" mask-type="alpha" maskUnits="userSpaceOnUse" x="537" y="37" width="25" height="31">
<path fill-rule="evenodd" clip-rule="evenodd" d="M546.058 38.176C542.142 38.7678 539.056 40.5423 538.226 43.5C537.396 46.4572 537.247 64.4677 537.247 64.8229C537.247 65.533 541.534 67.4437 548.906 67.3071C556.15 67.1741 560.921 65.1778 560.921 65.1778C560.921 65.1778 562.315 43.1447 560.417 40.4236C559.084 38.5138 554.478 37.8867 550.496 37.8867C548.805 37.8867 547.225 37.9999 546.058 38.176Z" fill="white"/>
</mask>
<g mask="url(#mask5)">
<path fill-rule="evenodd" clip-rule="evenodd" d="M543.067 50.8151C543.068 50.5763 543.106 50.2188 543.423 50.2188C543.738 50.2188 543.78 50.5763 543.771 50.8151C543.765 50.9939 543.757 51.1727 543.748 51.3519C543.74 51.5486 543.725 51.7393 543.692 51.9337C543.662 52.1221 543.66 52.3472 543.508 52.4792C543.432 52.5456 543.334 52.5461 543.258 52.4792C543.101 52.3421 543.105 52.1019 543.082 51.9075C543.06 51.72 543.057 51.5408 543.059 51.3519C543.062 51.1727 543.065 50.9939 543.067 50.8151Z" fill="#00143B"/>
</g>
<mask id="mask6" mask-type="alpha" maskUnits="userSpaceOnUse" x="537" y="37" width="25" height="31">
<path fill-rule="evenodd" clip-rule="evenodd" d="M546.058 38.176C542.142 38.7678 539.056 40.5423 538.226 43.5C537.396 46.4572 537.247 64.4677 537.247 64.8229C537.247 65.533 541.534 67.4437 548.906 67.3071C556.15 67.1741 560.921 65.1778 560.921 65.1778C560.921 65.1778 562.315 43.1447 560.417 40.4236C559.084 38.5138 554.478 37.8867 550.496 37.8867C548.805 37.8867 547.225 37.9999 546.058 38.176Z" fill="white"/>
</mask>
<g mask="url(#mask6)">
<path fill-rule="evenodd" clip-rule="evenodd" d="M541.377 47.6747C541.676 47.5124 542.051 47.4927 542.387 47.4611C542.762 47.4258 543.14 47.4189 543.515 47.445C544.222 47.4941 544.974 47.6513 545.547 48.0927C545.723 48.2284 545.575 48.5154 545.369 48.4008C544.784 48.0762 544.117 47.9369 543.456 47.897C543.119 47.8768 542.781 47.8833 542.445 47.9121C542.121 47.9392 541.793 48.0377 541.472 48.0258C541.293 48.0194 541.207 47.7673 541.377 47.6747Z" fill="#00143B"/>
</g>
<mask id="mask7" mask-type="alpha" maskUnits="userSpaceOnUse" x="537" y="37" width="25" height="31">
<path fill-rule="evenodd" clip-rule="evenodd" d="M546.058 38.176C542.142 38.7678 539.056 40.5423 538.226 43.5C537.396 46.4572 537.247 64.4677 537.247 64.8229C537.247 65.533 541.534 67.4437 548.906 67.3071C556.15 67.1741 560.921 65.1778 560.921 65.1778C560.921 65.1778 562.315 43.1447 560.417 40.4236C559.084 38.5138 554.478 37.8867 550.496 37.8867C548.805 37.8867 547.225 37.9999 546.058 38.176Z" fill="white"/>
</mask>
<g mask="url(#mask7)">
<path fill-rule="evenodd" clip-rule="evenodd" d="M562.519 44.4172C562.519 44.4172 552.288 41.9326 545.966 42.2855C542.761 42.4689 540.448 43.1703 538.949 43.8212C538.406 44.055 537.974 44.2842 537.639 44.4813C537.073 44.8068 536.801 45.036 536.801 45.036C536.801 45.036 535.555 41.8455 535.734 39.448C535.909 37.0505 538.668 34.1258 541.161 32.7919C542.319 32.173 545.676 32.3426 549.309 32.9019C552.127 33.3374 555.116 34.0112 557.374 34.7401H557.378C558.464 35.0931 559.379 35.4552 560.027 35.8082C561.77 36.7617 562.428 38.6962 562.634 40.4886C562.689 40.9511 562.712 41.4054 562.717 41.8313C562.731 43.294 562.519 44.4172 562.519 44.4172Z" fill="#F5BB40"/>
</g>
<mask id="mask8" mask-type="alpha" maskUnits="userSpaceOnUse" x="537" y="37" width="25" height="31">
<path fill-rule="evenodd" clip-rule="evenodd" d="M546.058 38.176C542.142 38.7678 539.056 40.5423 538.226 43.5C537.396 46.4572 537.247 64.4677 537.247 64.8229C537.247 65.533 541.534 67.4437 548.906 67.3071C556.15 67.1741 560.921 65.1778 560.921 65.1778C560.921 65.1778 562.315 43.1447 560.417 40.4236C559.084 38.5138 554.478 37.8867 550.496 37.8867C548.805 37.8867 547.225 37.9999 546.058 38.176Z" fill="white"/>
</mask>
<g mask="url(#mask8)">
<path fill-rule="evenodd" clip-rule="evenodd" d="M562.718 41.8312L561.6 42.5509C561.6 42.5509 558.993 41.3087 556.975 40.3052C554.956 39.3008 551.457 39.1225 551.457 39.1225C551.457 39.1225 545.465 39.475 543.387 40.3648C541.805 41.0386 539.818 42.9456 538.949 43.8212C538.407 44.055 537.974 44.2842 537.639 44.4809C536.751 44.3988 536.981 43.0277 536.981 43.0277L537.335 37.9398L540.894 33.2085L549.309 32.9019C552.128 33.3373 555.117 34.0108 557.375 34.7396H557.379L562.635 40.4881C562.69 40.9511 562.713 41.4049 562.718 41.8312Z" fill="#D5A237"/>
</g>
<mask id="mask9" mask-type="alpha" maskUnits="userSpaceOnUse" x="537" y="37" width="25" height="31">
<path fill-rule="evenodd" clip-rule="evenodd" d="M546.058 38.176C542.142 38.7678 539.056 40.5423 538.226 43.5C537.396 46.4572 537.247 64.4677 537.247 64.8229C537.247 65.533 541.534 67.4437 548.906 67.3071C556.15 67.1741 560.921 65.1778 560.921 65.1778C560.921 65.1778 562.315 43.1447 560.417 40.4236C559.084 38.5138 554.478 37.8867 550.496 37.8867C548.805 37.8867 547.225 37.9999 546.058 38.176Z" fill="white"/>
</mask>
<g mask="url(#mask9)">
<path fill-rule="evenodd" clip-rule="evenodd" d="M561.186 65.3245C560.758 66.2464 559.264 67.5707 557.194 68.703C554.077 70.4174 549.644 71.701 545.584 70.5321C538.82 68.5797 537.454 67.6303 536.682 64.9124C536.268 63.4546 536.35 61.5064 536.512 60.0115C536.549 59.6728 536.59 59.3606 536.631 59.0814C536.746 58.2792 536.861 57.7561 536.861 57.7561C536.861 57.7561 537.344 57.7928 538.093 57.8208C539.827 57.8804 542.986 57.885 544.812 57.2198C546.32 56.6747 547.506 56.0142 548.688 55.8125C548.771 55.7992 548.854 55.785 548.936 55.7808C548.987 55.7712 549.032 55.7666 549.079 55.7666C549.424 55.7345 549.769 55.7529 550.127 55.8262C550.233 55.8491 550.339 55.8771 550.449 55.9138C550.508 55.9271 550.564 55.9454 550.623 55.9688C550.872 56.0554 551.13 56.1797 551.396 56.3355C553.709 57.6965 556.5 58.2288 558.22 58.1096C559.94 57.9899 561.599 57.399 561.599 57.399C561.599 57.399 562.252 63.0192 561.186 65.3245Z" fill="#58BAD3"/>
</g>
<mask id="mask10" mask-type="alpha" maskUnits="userSpaceOnUse" x="537" y="37" width="25" height="31">
<path fill-rule="evenodd" clip-rule="evenodd" d="M546.058 38.176C542.142 38.7678 539.056 40.5423 538.226 43.5C537.396 46.4572 537.247 64.4677 537.247 64.8229C537.247 65.533 541.534 67.4437 548.906 67.3071C556.15 67.1741 560.921 65.1778 560.921 65.1778C560.921 65.1778 562.315 43.1447 560.417 40.4236C559.084 38.5138 554.478 37.8867 550.496 37.8867C548.805 37.8867 547.225 37.9999 546.058 38.176Z" fill="white"/>
</mask>
<g mask="url(#mask10)">
<path fill-rule="evenodd" clip-rule="evenodd" d="M561.6 57.3996C561.6 57.3996 559.941 57.9905 558.221 58.1101C556.501 58.2293 553.71 57.6971 551.397 56.3361C550.418 55.7585 549.553 55.6622 548.688 55.813C547.507 56.0147 546.321 56.6753 544.812 57.2203C542.987 57.8855 539.828 57.8809 538.094 57.8213L536.632 59.082C536.59 59.3611 536.549 59.6733 536.512 60.0121L537.515 60.2096C537.515 60.2096 541.52 60.1221 543.474 59.5903C544.964 59.1828 547.589 57.4408 548.914 56.5511C548.914 56.5511 548.914 56.5506 548.915 56.5506C549.095 56.8536 549.333 57.2932 549.498 57.7567C549.797 58.5818 549.971 60.1221 550.031 60.9472C550.091 61.7774 550.092 62.4279 550.092 62.4279C550.092 62.4279 551.102 60.0034 551.636 59.8842C552.169 59.7645 553.177 59.7049 553.949 60.0034C554.721 60.2963 556.381 60.5947 556.381 60.5947L558.874 61.3644L559.821 64.2024C559.821 64.2024 557.687 65.5043 556.322 66.3886C554.956 67.2783 552.05 68.8136 552.05 68.8136L557.195 68.7035C559.264 67.5713 560.759 66.2469 561.187 65.3251C562.253 63.0197 561.6 57.3996 561.6 57.3996Z" fill="#0099B8"/>
</g>
<mask id="mask11" mask-type="alpha" maskUnits="userSpaceOnUse" x="537" y="37" width="25" height="31">
<path fill-rule="evenodd" clip-rule="evenodd" d="M546.058 38.176C542.142 38.7678 539.056 40.5423 538.226 43.5C537.396 46.4572 537.247 64.4677 537.247 64.8229C537.247 65.533 541.534 67.4437 548.906 67.3071C556.15 67.1741 560.921 65.1778 560.921 65.1778C560.921 65.1778 562.315 43.1447 560.417 40.4236C559.084 38.5138 554.478 37.8867 550.496 37.8867C548.805 37.8867 547.225 37.9999 546.058 38.176Z" fill="white"/>
</mask>
<g mask="url(#mask11)">
<path fill-rule="evenodd" clip-rule="evenodd" d="M542.022 61.7766C542.11 61.6226 544.454 61.4223 545.345 61.3035C546.234 61.1853 547.777 60.3569 547.599 60.8891C547.421 61.4223 546.294 61.8953 546.294 61.8953C546.294 61.8953 544.454 62.1314 543.505 62.2497C542.556 62.3684 541.784 62.1905 542.022 61.7766Z" fill="#85E4E0"/>
</g>
<mask id="mask12" mask-type="alpha" maskUnits="userSpaceOnUse" x="537" y="37" width="25" height="31">
<path fill-rule="evenodd" clip-rule="evenodd" d="M546.058 38.176C542.142 38.7678 539.056 40.5423 538.226 43.5C537.396 46.4572 537.247 64.4677 537.247 64.8229C537.247 65.533 541.534 67.4437 548.906 67.3071C556.15 67.1741 560.921 65.1778 560.921 65.1778C560.921 65.1778 562.315 43.1447 560.417 40.4236C559.084 38.5138 554.478 37.8867 550.496 37.8867C548.805 37.8867 547.225 37.9999 546.058 38.176Z" fill="white"/>
</mask>
<g mask="url(#mask12)">
<path fill-rule="evenodd" clip-rule="evenodd" d="M541.607 63.3745C541.731 63.2008 543.921 63.5519 544.573 63.4337C545.226 63.3154 546.769 62.9606 546.116 63.4928C545.463 64.025 543.624 63.9659 543.624 63.9659C543.624 63.9659 541.014 64.2029 541.607 63.3745Z" fill="#85E4E0"/>
</g>
<path fill-rule="evenodd" clip-rule="evenodd" d="M567.505 50.243V52.2464C567.505 52.6539 567.164 52.9874 566.747 52.9874H562.254V49.502H566.747C567.164 49.502 567.505 49.8317 567.505 50.243Z" fill="#00CCB2"/>
<path fill-rule="evenodd" clip-rule="evenodd" d="M564.85 52.9874H562.254V49.502H564.078C564.345 50.5128 564.681 51.8988 564.85 52.9874Z" fill="#00A48F"/>
<path fill-rule="evenodd" clip-rule="evenodd" d="M529.492 50.243V52.2464C529.492 52.6539 529.833 52.9874 530.25 52.9874H534.743V49.502H530.25C529.833 49.502 529.492 49.8317 529.492 50.243Z" fill="#00CCB2"/>
<path fill-rule="evenodd" clip-rule="evenodd" d="M532.149 52.9874H534.744V49.502H532.92C532.654 50.5128 532.317 51.8988 532.149 52.9874Z" fill="#00A48F"/>
<path fill-rule="evenodd" clip-rule="evenodd" d="M534.801 56.1723L535.224 45.8441C535.224 45.8441 540.593 44.7225 544.334 44.7815C548.075 44.841 560.684 45.5486 561.529 45.7851C562.374 46.0211 562.495 50.5064 562.495 51.569C562.495 52.6315 562.119 55.8421 560.979 56.4202C559.84 56.9989 555.375 57.1759 553.746 56.9398C552.117 56.7034 549.583 54.8147 548.195 55.2282C546.808 55.6413 543.67 56.7628 541.981 57.2349C540.292 57.7069 535.163 57.5889 534.801 56.1723Z" fill="white"/>
<path fill-rule="evenodd" clip-rule="evenodd" d="M540.554 44.3423C539.501 44.3423 538.725 44.351 538.361 44.3693C536.008 44.4868 534.681 45.0769 534.198 46.0214C533.715 46.9655 534.198 56.1136 534.198 56.1136C534.379 57.6487 535.525 58.1207 538.482 58.1207C541.438 58.1207 544.213 57.3532 546.868 56.2316C547.58 55.9311 548.097 55.8085 548.524 55.8085C549.69 55.8085 550.19 56.7211 552.177 57.4122C553.191 57.7649 554.64 57.9364 556.123 57.9364C558.613 57.9364 561.195 57.452 561.952 56.5271C563.158 55.0515 563.399 50.5072 562.917 47.379C562.566 45.1075 561.771 44.7965 561.361 44.7965C561.206 44.7965 561.107 44.8413 561.107 44.8413C560.342 44.5916 546.303 44.3423 540.554 44.3423ZM540.555 45.7144C547.013 45.7144 559.372 45.9697 560.736 46.1663L561.186 46.3132L561.192 46.3104C561.293 46.525 561.427 46.9142 561.53 47.5838C562.052 50.9677 561.588 54.7747 560.858 55.6676C560.585 55.9704 558.864 56.5641 556.123 56.5641C554.727 56.5641 553.46 56.4017 552.647 56.119C551.874 55.8505 551.383 55.5514 550.908 55.2619C550.242 54.8557 549.554 54.4362 548.524 54.4362C547.88 54.4362 547.177 54.6064 546.312 54.9719C543.482 56.1675 540.921 56.7484 538.482 56.7484C538.003 56.7484 536.548 56.7484 535.892 56.4493C535.733 56.3766 535.642 56.3349 535.596 55.9951C535.394 52.13 535.299 47.5258 535.49 46.5744C535.741 46.2194 536.628 45.8297 538.433 45.7391C538.658 45.7277 539.21 45.7144 540.554 45.7144H540.555Z" fill="#00CCB2"/>
<path fill-rule="evenodd" clip-rule="evenodd" d="M527.803 72.8755C527.803 72.8755 543.489 82.3186 568.589 74.1741C568.589 74.1741 564.607 77.9513 548.195 78.6594C548.195 78.6594 534.439 78.6594 527.803 72.8755Z" fill="#00CCB2"/>
</g>
<defs>
<clipPath id="clip0">
<rect width="663" height="181.457" fill="white" transform="translate(0 0.271484)"/>
</clipPath>
</defs>
</svg>
